<svg xmlns="http://www.w3.org/2000/svg" width="500" height="500" viewBox="0 0 500 500">
<g>
<path d="M 281.00 436.94 C273.90,438.08 194.77,438.44 193.67,437.33 C193.30,436.97 193.00,394.89 193.00,343.83 L 193.00 251.00 L 231.75 251.02 C253.06,251.03 273.64,251.49 277.47,252.05 C290.53,253.93 299.08,259.39 303.70,268.80 L 306.50 274.50 L 306.50 300.00 C306.50,329.18 306.05,331.18 297.75,339.19 L 293.38 343.41 L 297.94 346.45 C303.86,350.41 308.38,357.27 309.84,364.53 C311.31,371.88 311.36,405.18 309.90,412.20 C307.06,425.88 297.18,434.34 281.00,436.94 ZM 298.00 224.84 C298.00,226.00 272.50,225.99 248.50,224.81 C240.80,224.44 224.60,223.90 212.50,223.62 C199.53,223.32 189.14,222.64 187.20,221.94 C185.38,221.30 183.66,221.01 183.36,221.31 C183.06,221.60 181.02,221.21 178.83,220.44 C176.63,219.66 172.73,218.84 170.16,218.61 C165.03,218.14 150.24,216.22 145.50,215.41 C125.67,212.01 119.12,211.21 101.18,209.97 C79.50,208.48 79.51,208.48 79.46,206.89 C79.44,206.12 78.71,204.38 77.83,203.00 C75.83,199.86 73.31,192.64 72.53,187.80 L 71.93 184.11 L 62.71 184.47 C57.10,184.69 54.28,184.51 55.50,183.99 C57.04,183.34 56.57,183.15 53.50,183.19 C51.30,183.21 50.29,183.44 51.25,183.69 C53.26,184.21 53.62,185.94 51.75,186.12 C49.89,186.29 46.56,185.86 46.07,185.39 C45.84,185.16 46.51,184.28 47.57,183.42 C48.63,182.56 49.01,182.09 48.40,182.39 C47.15,183.01 45.11,179.37 45.25,176.75 C45.34,174.85 45.74,174.73 51.00,174.96 C56.69,175.20 57.76,173.61 58.54,163.80 L 59.23 155.09 L 51.86 154.80 L 44.50 154.50 L 43.88 148.06 L 72.50 147.50 L 72.81 144.85 C72.98,143.39 74.57,140.51 76.36,138.45 C79.32,135.02 79.90,134.76 83.24,135.39 C85.79,135.86 87.77,137.19 89.82,139.78 C95.27,146.71 101.71,163.59 101.90,171.50 C102.05,177.55 103.61,182.69 105.66,183.83 C106.51,184.30 109.37,184.24 112.15,183.69 C115.70,182.99 118.76,183.06 122.81,183.94 C125.94,184.62 131.43,185.80 135.00,186.58 C147.03,189.17 179.08,194.13 181.80,193.81 C184.16,193.54 184.50,193.06 184.50,190.00 L 184.50 186.50 L 171.00 184.81 C163.57,183.88 151.26,182.41 143.62,181.53 C135.99,180.65 128.89,179.34 127.84,178.60 C126.08,177.37 126.24,177.22 129.83,176.64 C134.12,175.96 148.09,177.10 163.50,179.41 C169.00,180.23 175.86,181.17 178.75,181.50 C183.89,182.08 184.00,182.03 184.00,179.48 C184.00,178.04 184.40,176.11 184.89,175.18 C185.39,174.26 186.73,169.05 187.88,163.61 C190.74,150.09 195.38,140.16 199.68,138.36 C206.28,135.60 212.20,136.97 217.56,142.49 C220.98,146.01 224.51,151.83 223.71,152.62 C223.47,152.86 222.06,152.59 220.57,152.03 C213.69,149.41 204.29,151.96 198.50,158.00 C196.29,160.31 196.01,161.00 197.28,161.00 C198.44,161.00 199.44,162.70 200.56,166.55 C202.48,173.17 202.00,175.00 198.32,175.00 C195.78,175.00 195.69,175.12 197.20,176.63 C199.13,178.56 203.46,177.84 204.39,175.44 C204.72,174.57 204.25,171.60 203.35,168.84 C202.45,166.08 201.66,162.19 201.61,160.19 C201.51,156.98 201.93,156.32 205.21,154.54 C209.93,151.98 210.80,152.77 212.96,161.64 C215.27,171.09 216.74,171.67 222.93,165.57 L 227.90 160.68 L 228.94 163.09 C229.51,164.41 231.12,169.98 232.52,175.46 C234.40,182.86 234.91,186.84 234.48,190.96 C234.17,194.01 234.34,197.14 234.87,197.92 C235.62,199.04 240.70,199.50 258.66,200.10 C271.22,200.52 285.92,201.12 291.33,201.42 C299.41,201.88 302.61,201.59 309.33,199.83 C317.25,197.76 318.31,197.72 344.00,198.76 C361.99,199.49 373.55,199.51 380.00,198.83 C393.41,197.42 403.28,198.17 410.23,201.14 L 415.96 203.59 L 412.91 207.30 C410.65,210.04 410.26,211.00 411.43,211.00 C413.58,211.00 413.42,212.54 411.25,212.71 C410.29,212.78 406.80,214.50 403.50,216.53 L 397.50 220.23 L 402.25 219.63 C404.86,219.31 407.00,219.45 407.00,219.95 C407.00,220.44 407.79,221.06 408.75,221.31 C410.58,221.79 394.65,222.37 387.21,222.09 C384.85,222.01 382.48,222.20 381.95,222.53 C381.43,222.85 370.98,223.36 358.75,223.64 C346.51,223.93 336.38,224.46 336.24,224.83 C335.86,225.82 301.80,225.64 299.75,224.64 C298.65,224.10 298.00,224.18 298.00,224.84 ZM 223.81 410.25 C223.98,410.66 233.90,411.00 245.85,411.00 C266.40,411.00 267.82,410.88 272.02,408.75 C279.54,404.93 280.50,402.14 280.50,384.00 C280.50,366.17 279.63,363.38 273.02,360.01 C269.42,358.17 267.14,358.00 246.57,358.00 L 224.07 358.00 L 223.78 383.75 C223.63,397.91 223.64,409.84 223.81,410.25 ZM 64.40 140.84 C64.80,141.48 64.98,141.91 64.81,141.80 C64.64,141.69 61.12,141.47 57.00,141.30 C52.88,141.13 48.49,140.76 47.25,140.48 L 45.00 139.96 L 45.00 111.18 C45.00,89.80 45.32,82.08 46.22,81.18 C47.19,80.21 47.19,79.54 46.22,77.99 C44.23,74.80 44.84,73.24 46.88,76.33 L 48.75 79.16 L 49.42 75.58 C49.79,73.58 50.68,72.00 51.44,72.00 C53.29,72.00 54.06,69.56 53.35,65.99 C52.83,63.42 53.05,63.00 54.88,63.00 C57.27,63.00 57.41,62.64 56.02,60.04 C55.31,58.71 55.45,57.87 56.52,56.98 C57.73,55.98 58.00,56.07 58.00,57.46 C58.00,58.84 58.58,59.03 61.13,58.47 C63.18,58.02 64.03,58.14 63.61,58.82 C63.26,59.39 63.39,60.12 63.91,60.45 C64.43,60.77 64.67,63.27 64.45,66.02 C64.22,68.76 64.36,70.99 64.77,70.97 C66.71,70.88 69.21,67.92 68.77,66.22 C68.50,65.20 69.01,62.81 69.90,60.93 C71.10,58.41 72.19,57.49 74.01,57.45 C76.84,57.40 80.00,60.41 80.00,63.15 C80.00,65.23 82.52,65.67 83.42,63.75 C83.88,62.76 84.13,62.77 84.60,63.79 C85.09,64.85 85.48,64.85 86.76,63.79 C88.16,62.64 88.26,63.01 87.69,67.21 C87.30,70.04 87.46,72.16 88.07,72.55 C88.75,72.96 88.69,73.67 87.89,74.63 C86.98,75.73 86.97,76.37 87.84,77.24 C88.72,78.12 89.00,78.07 89.00,77.03 C89.00,76.28 89.34,76.00 89.75,76.42 C90.16,76.83 90.58,80.17 90.68,83.83 C90.78,87.50 91.00,92.03 91.16,93.90 C91.48,97.53 91.33,97.68 84.52,100.72 C81.71,101.98 80.28,103.38 79.62,105.50 C79.12,107.15 78.07,109.97 77.30,111.77 C76.52,113.57 75.45,120.50 74.91,127.18 C74.36,133.85 73.70,139.68 73.42,140.13 C73.14,140.58 70.84,140.67 68.30,140.32 C64.93,139.86 63.88,140.00 64.40,140.84 ZM 223.85 330.32 C224.05,330.77 233.72,331.00 245.35,330.82 C264.38,330.53 266.84,330.30 269.85,328.50 C275.83,324.92 277.00,321.03 276.98,304.79 C276.95,287.20 275.59,283.08 268.78,279.99 C265.00,278.27 262.14,278.04 244.28,278.02 L 224.07 278.00 L 223.78 303.75 C223.63,317.91 223.66,329.87 223.85,330.32 ZM 392.11 189.19 C387.97,191.19 385.90,191.37 364.07,191.60 C338.10,191.87 331.73,191.36 327.64,188.68 C324.63,186.71 314.01,172.77 310.85,166.65 C307.58,160.33 308.18,160.00 323.17,160.00 C333.46,160.00 336.13,160.27 335.20,161.20 C333.72,162.68 333.57,176.62 335.02,177.51 C335.58,177.86 349.31,177.82 365.52,177.42 L 395.00 176.70 L 395.00 168.93 C395.00,162.36 394.73,161.08 393.25,160.69 C392.29,160.44 395.44,160.18 400.25,160.12 C408.80,160.00 409.00,160.05 409.00,162.35 C409.00,169.72 398.77,185.96 392.11,189.19 ZM 384.51 152.97 C377.51,154.20 361.26,154.98 355.50,154.37 C342.27,152.97 330.42,150.74 327.21,149.03 C323.56,147.09 318.94,143.18 316.01,139.56 C314.64,137.87 314.69,137.76 316.51,138.30 C317.60,138.63 327.05,139.65 337.50,140.57 C353.16,141.95 356.86,142.57 358.56,144.12 C361.20,146.52 365.78,146.53 368.44,144.14 C369.99,142.74 373.44,141.98 382.42,141.05 C388.98,140.37 395.43,139.41 396.75,138.90 C399.06,138.03 399.13,138.12 398.46,141.24 C396.74,149.22 394.32,151.26 384.51,152.97 ZM 298.16 190.92 C295.59,192.29 280.00,192.36 280.00,191.00 C280.00,190.45 280.44,190.00 280.98,190.00 C282.83,190.00 283.18,185.25 281.56,182.11 C280.67,180.40 279.74,179.00 279.47,179.00 C278.28,179.00 274.99,183.18 275.52,184.03 C275.84,184.55 275.41,184.71 274.55,184.38 C272.03,183.41 272.78,185.66 275.75,187.99 L 278.50 190.14 L 272.10 189.57 C268.59,189.26 264.62,189.00 263.29,189.00 C261.84,189.00 261.14,188.58 261.54,187.93 C262.15,186.95 259.42,184.10 257.79,184.03 C257.40,184.01 256.17,184.97 255.07,186.16 C253.28,188.08 252.99,188.13 252.42,186.65 C251.99,185.52 253.29,183.21 256.40,179.56 C264.38,170.23 269.83,168.27 283.12,169.95 C294.96,171.45 297.86,172.79 301.62,178.50 C303.43,181.25 305.83,184.70 306.96,186.16 C308.08,187.62 309.00,189.05 309.00,189.32 C309.00,189.60 307.02,189.83 304.59,189.83 C302.16,189.83 299.27,190.32 298.16,190.92 ZM 444.00 141.39 L 444.00 154.00 L 433.02 154.00 C422.31,154.00 422.02,153.94 421.45,151.64 C421.12,150.34 421.00,147.75 421.18,145.89 C421.48,142.75 421.79,142.48 425.30,142.19 C428.51,141.92 429.01,141.58 428.55,139.94 C428.25,138.87 427.73,137.07 427.41,135.93 C427.09,134.79 425.22,132.39 423.25,130.59 C419.26,126.94 419.45,124.46 423.60,126.04 C427.63,127.57 434.97,127.24 435.64,125.50 C436.48,123.30 439.18,123.70 441.75,126.41 C443.84,128.61 444.00,129.68 444.00,141.39 ZM 184.04 107.39 C182.58,111.23 179.90,110.62 173.34,104.95 C171.60,103.44 168.45,101.65 166.34,100.96 C164.23,100.27 162.24,99.30 161.91,98.81 C161.59,98.31 159.82,97.14 157.97,96.20 C154.35,94.36 152.30,91.14 155.55,92.38 C156.56,92.77 163.10,93.60 170.10,94.23 C185.32,95.61 185.57,95.50 186.52,86.69 C186.89,83.28 187.83,79.15 188.61,77.50 C189.39,75.85 189.80,75.33 189.51,76.33 C189.23,77.34 188.71,81.22 188.37,84.94 C187.68,92.36 188.63,94.17 191.52,90.98 C194.71,87.46 197.37,88.44 200.42,94.26 C201.93,97.16 203.25,101.09 203.34,103.01 L 203.50 106.50 L 199.00 106.45 C196.52,106.43 192.37,106.04 189.77,105.59 C185.26,104.82 184.99,104.90 184.04,107.39 ZM 417.91 188.82 C416.87,189.47 414.17,190.00 411.91,190.00 C407.99,190.00 407.82,189.87 408.42,187.46 C410.05,180.96 413.41,173.70 415.83,171.46 C419.11,168.42 422.98,168.21 423.72,171.03 C424.12,172.56 424.77,172.90 426.37,172.40 C429.30,171.51 429.55,171.15 428.18,169.78 C425.94,167.54 426.88,166.00 430.50,166.00 C433.85,166.00 434.67,166.99 434.10,170.32 C434.02,170.77 434.75,171.00 435.73,170.84 C436.70,170.68 438.06,170.90 438.74,171.33 C439.59,171.86 439.79,171.62 439.38,170.55 C438.97,169.47 439.39,169.00 440.78,169.00 C443.16,169.00 443.97,171.47 443.99,178.78 L 444.00 184.06 L 433.38 183.76 C425.36,183.52 422.64,183.77 422.27,184.75 C421.89,185.72 421.43,185.77 420.42,184.93 C418.33,183.20 416.41,184.26 418.26,186.12 C419.64,187.49 419.60,187.77 417.91,188.82 ZM 363.95 92.54 L 366.40 94.94 L 354.45 94.75 C257.29,93.23 247.54,92.87 248.23,90.82 C248.41,90.26 252.38,89.64 257.03,89.45 C261.69,89.27 270.00,88.84 275.50,88.50 C281.80,88.11 285.00,88.23 284.14,88.82 C283.25,89.43 285.67,89.75 291.14,89.74 C295.74,89.73 307.26,90.07 316.75,90.49 C328.92,91.03 334.00,90.94 334.00,90.17 C334.00,89.52 336.29,89.10 339.75,89.10 C342.91,89.10 347.52,89.06 350.00,88.99 C356.94,88.82 361.27,89.92 363.95,92.54 ZM 205.50 215.62 C211.16,218.29 213.59,218.50 219.19,216.82 C223.03,215.68 232.00,208.73 232.00,206.92 C232.00,206.41 230.79,206.00 229.32,206.00 C225.85,206.00 218.05,197.89 217.88,194.11 C217.80,192.08 217.56,192.39 216.82,195.50 C216.30,197.70 215.85,200.51 215.83,201.75 C215.81,202.99 215.44,204.00 215.02,204.00 C214.60,204.00 213.96,205.87 213.59,208.15 C212.70,213.70 212.36,214.09 209.34,212.94 C207.61,212.28 206.34,212.30 205.51,212.99 C204.63,213.73 203.88,213.56 202.94,212.43 C201.85,211.11 201.85,209.87 202.95,205.17 C203.68,202.05 204.33,197.93 204.39,196.00 L 204.50 192.50 L 197.25 192.32 C191.01,192.16 190.00,192.37 190.00,193.84 C190.00,195.26 190.98,195.55 195.75,195.53 C201.36,195.50 201.51,195.57 201.83,198.41 C202.30,202.48 199.12,209.26 197.10,208.49 C193.40,207.07 200.94,213.47 205.50,215.62 ZM 281.65 145.50 C272.20,149.45 257.32,144.82 249.00,135.35 C246.01,131.94 245.89,131.56 247.61,130.95 C248.77,130.54 249.69,130.78 250.00,131.56 C250.41,132.61 250.83,132.61 252.29,131.54 C253.27,130.82 254.00,129.84 253.92,129.36 C253.36,126.27 254.17,125.63 255.95,127.75 C257.09,129.13 258.44,129.77 259.41,129.40 C261.18,128.72 261.70,131.45 260.00,132.50 C259.45,132.84 259.00,132.64 259.00,132.06 C259.00,131.48 258.55,131.00 258.00,131.00 C257.45,131.00 257.00,131.90 257.00,133.00 C257.00,135.24 258.96,135.64 260.82,133.78 C261.78,132.82 261.90,133.23 261.41,135.68 C260.74,139.05 260.92,139.19 268.00,140.50 C273.56,141.53 275.00,142.07 275.00,143.10 C275.00,143.73 274.36,143.73 273.20,143.10 C272.20,142.57 270.81,142.50 270.09,142.94 C267.88,144.31 275.18,144.88 279.00,143.63 C280.92,143.01 284.30,142.77 286.50,143.10 C289.23,143.52 289.66,143.76 287.87,143.86 C286.43,143.94 283.63,144.68 281.65,145.50 ZM 135.07 91.75 C135.03,92.44 134.41,93.00 133.68,93.00 C132.60,93.00 132.60,91.65 133.69,85.27 C135.04,77.38 139.01,61.65 140.87,56.81 C142.21,53.31 147.00,51.97 157.50,52.14 L 165.50 52.27 L 158.16 53.04 C144.97,54.42 144.36,54.65 142.72,58.78 C141.90,60.82 140.66,65.20 139.95,68.50 C139.25,71.80 138.29,75.00 137.84,75.60 C137.38,76.21 136.73,78.91 136.39,81.60 C136.06,84.30 135.64,87.40 135.47,88.50 C135.29,89.60 135.12,91.06 135.07,91.75 ZM 79.24 199.75 C81.45,202.10 82.75,202.46 84.61,201.23 C85.92,200.37 84.87,196.70 83.46,197.18 C82.93,197.35 82.36,194.63 82.20,191.12 C81.94,185.74 82.23,184.38 84.02,182.47 C85.19,181.23 85.74,179.96 85.24,179.65 C84.74,179.34 82.88,181.13 81.12,183.63 C78.47,187.38 77.66,187.97 76.46,186.97 C75.23,185.95 75.00,186.25 75.00,188.81 C75.00,192.79 76.61,196.94 79.24,199.75 ZM 222.21 162.30 C220.12,164.33 218.07,166.00 217.66,166.00 C216.45,166.00 214.00,159.36 214.00,156.09 C214.00,152.00 215.29,151.54 221.04,153.61 C227.09,155.79 227.29,157.33 222.21,162.30 ZM 226.77 210.18 C226.54,210.87 223.80,212.43 220.68,213.64 L 215.00 215.83 L 215.00 212.39 C215.00,208.46 217.41,202.00 218.88,202.00 C220.58,202.00 227.21,208.86 226.77,210.18 ZM 351.50 138.06 C348.91,139.10 347.23,139.04 330.56,137.39 C322.89,136.63 316.14,135.50 315.56,134.88 C314.78,134.04 315.55,133.90 318.50,134.32 C320.70,134.64 326.55,135.16 331.50,135.48 C349.16,136.63 353.62,137.21 351.50,138.06 ZM 87.45 168.92 C87.82,169.52 89.44,170.00 91.06,170.00 C93.74,170.00 93.99,169.71 93.86,166.75 C93.76,164.30 93.62,164.07 93.29,165.81 C93.00,167.31 92.26,168.01 91.17,167.80 C88.80,167.35 88.32,159.83 90.52,157.63 C92.08,156.06 91.79,152.00 90.11,152.00 C89.08,152.00 86.63,167.59 87.45,168.92 ZM 391.00 136.98 C385.32,138.25 370.16,139.08 369.59,138.15 C369.04,137.26 382.18,135.94 390.00,136.11 L 394.50 136.20 ZM 277.36 75.50 C278.05,77.29 276.85,77.30 271.50,75.52 C267.78,74.28 267.66,74.14 269.87,73.45 L 272.25 72.70 L 269.87 71.39 L 267.50 70.07 L 270.00 70.07 C273.10,70.06 276.75,72.54 274.80,73.32 C273.92,73.68 274.03,73.87 275.14,73.92 C276.05,73.96 277.05,74.68 277.36,75.50 ZM 115.16 50.14 C115.07,51.60 114.31,53.05 113.46,53.38 C111.88,53.98 111.89,53.17 113.64,43.76 C114.43,39.55 115.83,39.54 115.56,43.75 C115.43,45.81 115.25,48.69 115.16,50.14 ZM 78.83 171.33 C79.75,171.57 81.40,171.81 82.50,171.87 C84.20,171.96 84.13,171.78 82.02,170.72 C80.66,170.03 79.02,168.42 78.39,167.15 C76.91,164.19 75.00,162.22 75.00,163.65 C75.00,166.28 77.31,170.93 78.83,171.33 ZM 131.17 117.35 C128.88,119.42 126.40,119.47 125.62,117.46 C125.02,115.89 125.46,115.61 130.25,114.56 C133.43,113.87 133.79,114.97 131.17,117.35 ZM 79.64 157.28 C82.38,162.69 84.09,162.38 83.85,156.50 C83.75,154.16 83.63,153.99 83.29,155.75 C82.78,158.40 81.01,158.78 80.97,156.25 C80.93,154.14 78.55,150.79 77.70,151.64 C77.36,151.97 78.24,154.51 79.64,157.28 ZM 91.50 185.00 C92.37,186.41 93.00,186.24 93.00,184.61 C93.00,183.84 91.88,182.93 90.50,182.59 C87.58,181.86 87.28,180.50 89.74,179.12 C91.79,177.98 90.79,176.48 88.54,177.35 C87.62,177.70 87.00,179.16 87.00,180.97 C87.00,183.30 87.45,184.00 88.94,184.00 C90.01,184.00 91.16,184.45 91.50,185.00 ZM 195.82 126.13 C195.10,126.59 194.19,126.98 193.82,126.98 C192.54,127.01 189.98,123.84 190.55,122.92 C191.43,121.50 193.69,121.83 195.50,123.65 C196.83,124.97 196.89,125.45 195.82,126.13 ZM 81.00 191.79 C81.00,193.90 80.52,194.57 79.00,194.57 C76.75,194.57 76.53,193.75 78.04,190.93 C79.53,188.14 81.00,188.56 81.00,191.79 ZM 86.00 89.08 C86.00,90.16 86.69,91.00 87.57,91.00 C88.61,91.00 89.03,90.27 88.82,88.85 C88.45,86.40 85.49,84.15 84.30,85.42 C83.86,85.89 84.06,86.47 84.75,86.72 C85.44,86.97 86.00,88.03 86.00,89.08 ZM 415.83 135.50 C416.01,138.17 415.67,139.00 414.42,139.00 C413.34,139.00 412.99,138.46 413.39,137.42 C413.73,136.55 414.00,134.97 414.00,133.92 C414.00,130.51 415.58,131.88 415.83,135.50 ZM 51.80 180.74 C50.81,181.93 51.09,182.11 53.48,181.84 C57.17,181.40 57.85,179.39 54.51,178.76 C53.09,178.49 52.17,178.50 52.46,178.79 C52.75,179.08 52.45,179.96 51.80,180.74 ZM 177.00 102.20 C177.00,103.12 177.27,103.13 178.18,102.22 C179.79,100.61 179.16,100.19 173.96,99.47 C170.67,99.00 169.89,99.12 171.00,99.90 C171.82,100.49 173.51,100.98 174.75,100.98 C175.99,100.99 177.00,101.54 177.00,102.20 ZM 249.00 169.06 C249.00,171.56 247.37,171.56 246.03,169.06 C245.34,167.77 245.33,166.91 246.00,166.50 C247.49,165.58 249.00,166.86 249.00,169.06 ZM 181.75 104.56 C182.70,105.26 183.80,105.62 184.20,105.38 C185.28,104.71 183.96,102.00 182.56,102.00 C180.38,102.00 179.98,103.27 181.75,104.56 ZM 72.00 63.52 C72.00,64.33 72.45,65.00 73.00,65.00 C73.55,65.00 74.00,64.32 74.00,63.50 C74.00,62.55 75.01,61.97 76.75,61.92 C78.26,61.88 78.92,61.61 78.21,61.32 C76.09,60.48 72.00,61.92 72.00,63.52 ZM 105.82 46.67 C105.34,49.18 103.00,49.52 103.00,47.08 C103.00,45.85 103.65,45.00 104.57,45.00 C105.50,45.00 106.01,45.68 105.82,46.67 ZM 278.24 134.50 C278.77,137.25 277.57,137.93 276.61,135.42 C275.75,133.20 275.85,132.00 276.88,132.00 C277.37,132.00 277.98,133.12 278.24,134.50 ZM 262.50 122.00 C262.85,122.57 262.01,123.00 260.56,123.00 C259.15,123.00 258.00,122.55 258.00,122.00 C258.00,121.45 258.87,121.00 259.94,121.00 C261.01,121.00 262.16,121.45 262.50,122.00 ZM 87.00 197.30 C87.00,199.35 87.03,199.35 88.47,197.44 C90.37,194.93 90.38,193.92 88.50,194.64 C87.68,194.95 87.00,196.15 87.00,197.30 ZM 361.26 139.13 C360.68,141.34 359.43,141.57 358.68,139.60 C358.36,138.78 358.89,138.00 359.94,137.73 C361.31,137.37 361.63,137.71 361.26,139.13 ZM 243.00 167.00 C243.00,167.55 242.32,168.00 241.50,168.00 C240.68,168.00 240.00,167.55 240.00,167.00 C240.00,166.45 240.68,166.00 241.50,166.00 C242.32,166.00 243.00,166.45 243.00,167.00 ZM 59.47 66.95 C59.84,67.55 60.60,67.75 61.16,67.40 C61.84,66.98 61.82,66.42 61.10,65.70 C59.82,64.42 58.52,65.41 59.47,66.95 ZM 84.00 77.00 C84.00,77.55 84.45,78.00 85.00,78.00 C85.55,78.00 86.00,77.55 86.00,77.00 C86.00,76.45 85.55,76.00 85.00,76.00 C84.45,76.00 84.00,76.45 84.00,77.00 ZM 69.00 180.00 C69.00,180.55 69.45,181.00 70.00,181.00 C70.55,181.00 71.00,180.55 71.00,180.00 C71.00,179.45 70.55,179.00 70.00,179.00 C69.45,179.00 69.00,179.45 69.00,180.00 ZM 413.00 230.00 C413.00,230.55 412.55,231.00 412.00,231.00 C411.45,231.00 411.00,230.55 411.00,230.00 C411.00,229.45 411.45,229.00 412.00,229.00 C412.55,229.00 413.00,229.45 413.00,230.00 Z" fill="rgb(21,13,12)"/>
<path d="M 0.00 0.00 L 500.00 0.00 L 500.00 500.00 L 0.00 500.00 ZM 444.00 141.39 C444.00,131.50 443.88,129.20 442.59,127.40 C443.80,127.81 444.00,119.73 444.00,71.47 L 444.00 15.00 L 45.08 15.00 L 45.10 44.31 C45.11,70.93 45.28,73.88 46.93,76.40 L 48.75 79.16 L 46.88 76.33 C44.96,73.42 44.31,74.63 45.90,77.45 C45.40,77.24 45.00,77.88 45.00,78.94 C45.00,80.07 45.45,81.00 46.00,81.00 C46.35,81.00 46.66,80.73 46.84,80.33 C46.73,80.61 46.52,80.88 46.22,81.18 C45.32,82.08 45.00,89.80 45.00,111.18 L 45.00 139.96 L 47.25 140.48 C47.52,140.54 47.95,140.61 48.50,140.68 C46.40,140.63 44.97,140.65 44.75,140.76 C44.34,140.96 44.00,142.68 44.00,144.59 L 44.00 148.05 L 43.88 148.06 L 44.50 154.50 L 51.86 154.80 L 56.93 155.00 L 44.03 155.00 L 44.05 194.54 C44.06,216.29 44.33,235.40 44.65,237.01 L 45.24 239.94 L 244.62 239.96 L 444.00 239.99 L 444.00 184.06 L 444.00 184.00 L 443.99 178.78 C443.97,172.51 443.37,169.80 441.70,169.16 C442.48,169.43 443.13,170.05 443.31,170.75 C443.56,171.71 443.82,168.34 443.88,163.25 L 444.00 154.00 ZM 93.00 250.00 L 93.00 441.00 L 436.00 441.00 L 436.00 250.00 ZM 45.00 250.00 L 45.00 441.00 L 85.00 441.00 L 85.00 250.00 ZM 203.00 489.65 C203.00,490.67 203.84,491.04 205.72,490.82 C208.05,490.55 208.57,489.88 209.28,486.25 C210.11,482.02 210.13,482.00 214.54,482.00 C218.96,482.00 218.97,482.02 220.10,486.50 C221.11,490.48 221.56,491.00 224.01,491.00 L 226.79 491.00 L 224.46 480.25 C223.18,474.34 221.53,466.80 220.80,463.50 L 219.46 457.50 L 214.82 457.20 C211.04,456.95 210.07,457.24 209.65,458.70 C208.50,462.66 203.00,488.27 203.00,489.65 ZM 170.38 490.91 C174.91,492.23 176.66,492.17 180.45,490.58 C184.53,488.88 186.00,486.42 186.00,481.26 C186.00,475.84 184.20,473.92 176.87,471.56 C171.73,469.90 170.44,469.06 170.17,467.19 C169.73,464.08 171.66,462.00 175.00,462.00 C178.00,462.00 179.58,463.38 180.16,466.50 C180.41,467.86 181.32,468.50 183.01,468.50 C185.06,468.50 185.55,467.95 185.80,465.42 C186.27,460.60 183.37,457.84 177.20,457.24 C167.64,456.33 163.68,460.04 164.68,468.99 C165.19,473.50 165.47,473.73 173.08,475.87 L 179.50 477.68 L 179.50 481.59 C179.50,485.48 179.47,485.50 175.24,485.81 C171.19,486.10 170.94,485.96 170.36,483.06 C169.85,480.52 169.27,480.00 166.94,480.00 C164.25,480.00 164.15,480.17 164.70,483.75 C165.43,488.47 166.46,489.78 170.38,490.91 ZM 323.50 490.91 C327.95,492.21 334.15,491.21 336.73,488.79 C338.52,487.10 339.00,485.56 339.00,481.48 C339.00,475.23 337.74,473.87 329.81,471.61 C325.94,470.50 323.93,469.36 323.51,468.03 C322.54,464.99 324.67,462.00 327.79,462.02 C331.42,462.04 332.73,463.01 333.15,466.00 C333.41,467.88 334.19,468.58 336.25,468.82 C338.80,469.11 339.00,468.87 339.00,465.52 C339.00,459.90 335.49,457.00 328.68,457.00 C320.75,457.00 318.00,459.43 318.00,466.45 C318.00,472.72 318.75,473.54 326.71,475.90 C332.49,477.62 332.50,477.62 332.50,481.56 C332.50,485.29 332.32,485.52 329.18,485.82 C325.42,486.18 323.00,484.64 323.00,481.88 C323.00,480.54 322.28,480.00 320.50,480.00 C318.34,480.00 318.00,480.45 318.00,483.31 C318.00,487.48 319.68,489.80 323.50,490.91 ZM 280.00 457.00 L 280.00 491.00 L 289.50 491.00 C298.97,491.00 299.00,490.99 299.00,488.50 C299.00,486.09 298.77,486.00 292.50,486.00 L 286.00 486.00 L 286.00 477.00 L 291.00 477.00 C295.67,477.00 296.00,476.83 296.00,474.50 C296.00,472.17 295.67,472.00 291.00,472.00 L 286.00 472.00 L 286.00 462.00 L 292.50 462.00 C298.77,462.00 299.00,461.91 299.00,459.50 C299.00,457.01 298.97,457.00 289.50,457.00 ZM 244.00 457.00 L 244.00 491.00 L 253.50 491.00 C262.97,491.00 263.00,490.99 263.00,488.50 C263.00,486.09 262.77,486.00 256.50,486.00 L 250.00 486.00 L 250.00 457.00 ZM 217.42 474.25 C217.99,476.80 217.81,477.00 214.91,477.00 L 211.77 477.00 L 212.47 472.37 C212.85,469.82 213.52,466.78 213.96,465.62 C214.78,463.44 215.24,464.58 217.42,474.25 ZM 240.15 224.46 C243.43,224.59 246.31,224.71 248.50,224.81 C254.93,225.13 261.47,225.36 267.60,225.51 C256.86,225.35 246.06,225.00 240.50,224.49 C240.39,224.48 240.28,224.47 240.15,224.46 ZM 440.57 125.33 C439.52,124.51 438.51,124.09 437.66,124.08 C438.82,123.91 440.11,124.32 440.57,125.33 ZM 440.68 183.97 C438.76,183.94 434.52,183.82 430.63,183.70 C430.49,183.69 430.35,183.69 430.21,183.69 C431.16,183.70 432.22,183.72 433.38,183.76 ZM 64.37 140.27 C64.71,139.97 65.93,139.99 68.30,140.32 C66.30,140.04 64.84,140.04 64.37,140.27 ZM 298.00 224.84 C298.00,224.48 298.20,224.29 298.55,224.28 C298.19,224.29 298.00,224.50 298.00,224.90 C298.00,224.97 297.84,225.04 297.54,225.09 C297.84,225.02 298.00,224.93 298.00,224.84 ZM 187.63 222.07 C188.11,222.18 188.83,222.29 189.74,222.41 C188.83,222.30 188.12,222.18 187.63,222.07 ZM 441.12 169.02 C441.02,169.01 440.91,169.00 440.79,169.00 L 440.82 169.00 C440.92,169.00 441.02,169.01 441.12,169.02 Z" fill="#00100B"/>
<path d="M 64.40 140.84 C64.25,140.59 64.23,140.40 64.37,140.27 C64.84,140.04 66.30,140.04 68.30,140.32 C70.84,140.67 73.14,140.58 73.42,140.13 C73.70,139.68 74.36,133.85 74.91,127.18 C75.45,120.50 76.52,113.57 77.30,111.77 C78.07,109.97 79.12,107.15 79.62,105.50 C80.28,103.38 81.71,101.98 84.52,100.72 C85.55,100.27 86.42,99.88 87.16,99.53 C87.06,99.58 86.95,99.63 86.84,99.68 C81.22,102.35 79.39,104.54 83.43,103.77 C84.92,103.48 90.95,104.09 96.83,105.11 C102.70,106.14 107.95,106.98 108.50,106.98 C109.05,106.99 110.27,105.64 111.20,103.99 C112.41,101.87 113.66,101.00 115.52,101.00 C116.96,101.00 119.02,100.52 120.11,99.94 C121.47,99.22 123.12,99.19 125.30,99.87 C127.06,100.42 132.10,101.11 136.50,101.42 C143.28,101.88 150.44,102.95 170.45,106.51 L 173.40 107.03 L 170.53 104.03 C168.94,102.38 166.27,100.82 164.57,100.56 C162.88,100.31 156.10,99.20 149.50,98.10 C138.42,96.26 125.88,94.80 107.00,93.15 C100.33,92.57 99.47,92.26 99.19,90.35 C98.78,87.45 109.50,74.26 118.22,66.95 C126.92,59.65 140.91,52.09 138.50,56.00 C137.32,57.91 139.19,56.99 140.98,54.78 C142.20,53.27 143.00,52.78 147.92,52.63 C143.88,53.29 141.71,54.63 140.87,56.81 C139.01,61.65 135.04,77.38 133.69,85.27 C132.60,91.65 132.60,93.00 133.68,93.00 C134.41,93.00 135.03,92.44 135.07,91.75 C135.12,91.06 135.29,89.60 135.47,88.50 C135.64,87.40 136.06,84.30 136.39,81.60 C136.73,78.91 137.38,76.21 137.84,75.60 C138.15,75.18 138.70,73.53 139.25,71.47 C137.78,78.11 137.88,78.33 139.80,80.24 C140.92,81.37 143.56,82.57 145.66,82.91 C148.51,83.37 149.99,84.34 151.49,86.73 C153.85,90.47 154.64,90.72 155.50,88.00 C155.85,86.90 156.44,85.96 156.82,85.90 C157.19,85.85 159.30,85.65 161.50,85.47 C163.70,85.29 168.13,84.92 171.34,84.65 C174.55,84.38 177.42,83.92 177.71,83.63 C178.00,83.34 179.47,83.34 180.99,83.65 C183.39,84.13 183.88,83.79 184.87,80.95 C187.67,72.91 184.62,64.86 176.40,58.58 C171.42,54.78 164.20,52.94 156.17,53.25 C156.80,53.18 157.46,53.11 158.16,53.04 L 161.84 52.66 C166.80,52.80 171.24,53.10 173.00,53.44 C177.07,54.24 177.37,54.17 176.17,52.71 C173.37,49.33 166.50,47.68 157.74,48.31 C153.21,48.63 148.38,49.16 147.00,49.48 L 144.50 50.06 L 147.00 48.93 C148.38,48.30 153.35,47.56 158.06,47.27 C170.94,46.48 176.31,48.36 184.72,56.60 C188.38,60.19 192.21,63.58 193.24,64.13 C194.95,65.04 194.93,64.77 192.91,60.82 C189.99,55.11 192.36,57.08 198.58,65.56 C201.18,69.10 203.80,72.00 204.40,72.01 C205.01,72.01 207.30,74.81 209.50,78.23 C217.10,90.02 217.05,89.99 226.34,90.07 C230.83,90.11 235.40,90.56 236.50,91.07 C237.81,91.67 233.95,91.90 225.27,91.71 C211.10,91.41 209.25,92.04 213.32,95.80 C216.39,98.63 233.83,107.67 237.82,108.50 C240.23,109.00 240.98,109.61 240.56,110.70 C239.72,112.90 242.08,120.00 243.66,120.00 C244.40,120.00 245.00,120.46 245.00,121.02 C245.00,121.58 246.13,123.83 247.51,126.02 C248.89,128.21 250.47,130.00 251.01,130.00 C251.56,130.00 252.00,127.75 252.00,125.00 L 252.00 120.00 L 256.26 120.00 C260.91,120.00 263.03,120.55 273.50,124.51 C280.72,127.24 290.00,129.33 290.90,128.43 C291.18,128.15 290.35,127.64 289.05,127.30 C286.07,126.52 276.04,121.25 273.82,119.29 C272.89,118.48 272.35,117.26 272.60,116.59 C272.89,115.84 269.58,113.71 264.00,111.05 C259.01,108.68 255.14,106.53 255.40,106.27 C256.07,105.60 261.59,107.48 277.20,113.69 C284.74,116.70 291.93,119.00 293.19,118.83 C296.35,118.38 296.61,115.52 293.75,112.65 L 291.35 110.26 L 301.93 109.60 C308.95,109.15 317.37,109.45 327.00,110.46 C334.98,111.31 341.61,112.00 341.75,112.00 C341.89,112.00 342.00,111.55 342.00,111.00 C342.00,110.45 340.99,109.97 339.75,109.93 C337.59,109.86 337.58,109.82 339.50,108.94 C340.99,108.25 340.29,108.08 336.75,108.26 C333.89,108.42 332.14,108.11 332.35,107.51 C332.55,106.95 334.76,106.63 337.27,106.79 C339.78,106.95 342.12,106.61 342.47,106.04 C342.87,105.40 341.84,105.00 339.77,105.00 C337.94,105.00 333.97,104.14 330.97,103.08 C327.96,102.03 322.12,100.84 318.00,100.45 C303.18,99.05 307.21,97.19 325.50,97.01 C335.12,96.91 337.86,96.62 336.04,95.89 C334.69,95.35 314.21,94.43 290.54,93.85 C266.87,93.27 246.95,92.64 246.27,92.44 C245.59,92.24 245.30,91.38 245.62,90.54 C246.05,89.44 247.63,89.00 251.19,89.00 C257.13,89.00 257.39,87.02 251.65,85.57 C247.37,84.49 247.32,82.34 251.59,82.83 L 254.48 83.15 L 252.09 81.08 C250.77,79.93 248.64,79.00 247.35,79.00 C246.06,79.00 245.00,78.61 245.00,78.14 C245.00,77.24 252.67,76.07 259.50,75.94 C265.22,75.83 261.05,74.16 254.81,74.07 C252.23,74.03 249.84,73.55 249.50,73.00 C249.16,72.45 246.46,72.00 243.50,72.00 C240.54,72.00 237.87,71.60 237.58,71.12 C236.94,70.09 241.71,69.00 246.82,69.00 C249.68,69.00 250.15,68.75 249.15,67.75 C248.46,67.06 246.68,66.41 245.20,66.29 C239.04,65.82 231.02,64.35 230.28,63.56 C229.85,63.10 231.75,63.02 234.50,63.38 C237.25,63.75 242.88,64.26 247.00,64.52 C257.52,65.19 251.77,63.43 238.00,61.77 C231.08,60.93 228.81,60.39 231.33,60.19 C233.43,60.01 238.24,60.35 242.00,60.93 C245.77,61.52 249.51,61.74 250.32,61.43 C251.13,61.12 252.09,61.34 252.46,61.93 C252.82,62.52 254.10,62.97 255.31,62.94 C257.39,62.88 257.38,62.82 255.02,61.89 C253.11,61.12 252.86,60.70 253.93,60.04 C254.70,59.57 256.03,59.44 256.91,59.75 C259.31,60.60 253.55,56.15 250.85,55.07 C248.56,54.15 248.55,54.13 250.67,54.06 C253.18,53.99 259.06,58.56 258.73,60.32 C258.60,60.97 259.62,61.53 261.00,61.57 C264.80,61.67 273.04,64.13 272.50,65.00 C272.24,65.43 272.71,66.35 273.56,67.05 C274.40,67.75 274.86,68.92 274.58,69.66 C274.29,70.40 274.49,71.00 275.01,71.00 C275.83,71.00 279.00,76.07 279.00,77.38 C279.00,77.64 278.21,78.06 277.25,78.31 C275.86,78.67 275.94,78.79 277.63,78.88 C279.86,79.00 281.75,82.94 279.66,83.08 C278.88,83.13 278.91,83.32 279.75,83.66 C280.44,83.94 281.00,84.80 281.00,85.56 C281.00,87.19 281.61,87.33 297.50,89.42 C298.93,89.61 300.55,89.79 302.28,89.96 C297.57,89.82 293.47,89.73 291.14,89.74 C285.67,89.75 283.25,89.43 284.14,88.82 C285.00,88.23 281.80,88.11 275.50,88.50 C270.00,88.84 261.69,89.27 257.03,89.45 C252.38,89.64 248.41,90.26 248.23,90.82 C247.54,92.87 257.29,93.23 354.45,94.75 L 366.10 94.94 C366.40,95.31 366.53,95.57 366.49,95.70 C365.95,97.35 377.05,104.19 379.32,103.61 C381.47,103.07 387.00,104.82 387.00,106.05 C387.00,106.52 388.52,107.19 390.37,107.54 C394.27,108.27 397.89,111.37 403.46,118.76 C406.87,123.28 407.55,123.77 408.36,122.25 C409.79,119.57 409.85,119.56 411.99,121.49 C413.80,123.13 414.00,123.14 414.00,121.65 C414.00,120.74 413.33,120.00 412.50,120.00 C411.67,120.00 411.00,119.81 411.00,119.58 C411.00,119.35 410.70,118.38 410.33,117.42 C409.87,116.22 410.03,115.90 410.84,116.40 C411.49,116.81 412.26,116.48 412.57,115.67 C413.06,114.41 413.56,114.43 416.32,115.79 C418.07,116.65 420.89,118.46 422.60,119.81 C425.64,122.21 435.00,124.04 435.00,122.23 C435.00,121.25 439.54,121.21 440.51,122.18 C440.89,122.56 441.83,122.62 442.60,122.32 C443.07,122.14 443.42,121.33 443.67,120.17 C443.46,126.09 443.13,127.58 442.59,127.40 C442.35,127.06 442.07,126.75 441.75,126.41 C441.36,125.99 440.96,125.63 440.57,125.33 C440.11,124.32 438.82,123.91 437.66,124.08 C436.74,124.07 436.01,124.53 435.64,125.50 C434.97,127.24 427.63,127.57 423.60,126.04 C419.45,124.46 419.26,126.94 423.25,130.59 C425.22,132.39 427.09,134.79 427.41,135.93 C427.73,137.07 428.25,138.87 428.55,139.94 C429.01,141.58 428.51,141.92 425.30,142.19 C421.79,142.48 421.48,142.75 421.18,145.89 C421.00,147.75 421.12,150.34 421.45,151.64 C422.02,153.94 422.31,154.00 433.02,154.00 L 444.00 154.00 L 443.88 163.25 C443.82,168.34 443.56,171.71 443.31,170.75 C443.13,170.05 442.48,169.43 441.70,169.16 C441.52,169.09 441.33,169.04 441.12,169.02 L 441.12 169.02 C441.02,169.01 440.92,169.00 440.82,169.00 C440.81,169.00 440.80,169.00 440.80,169.00 L 440.79 169.00 L 440.78 169.00 C439.39,169.00 438.97,169.47 439.38,170.55 C439.79,171.62 439.59,171.86 438.74,171.33 C438.06,170.90 436.70,170.68 435.73,170.84 C434.75,171.00 434.02,170.77 434.10,170.32 C434.67,166.99 433.85,166.00 430.50,166.00 C426.88,166.00 425.94,167.54 428.18,169.78 C429.55,171.15 429.30,171.51 426.37,172.40 C424.77,172.90 424.12,172.56 423.72,171.03 C422.98,168.21 419.11,168.42 415.83,171.46 C413.41,173.70 410.05,180.96 408.42,187.46 C407.82,189.87 407.99,190.00 411.91,190.00 C414.17,190.00 416.87,189.47 417.91,188.82 C419.60,187.77 419.64,187.49 418.26,186.12 C416.41,184.26 418.33,183.20 420.42,184.93 C421.43,185.77 421.89,185.72 422.27,184.75 C422.59,183.91 424.62,183.61 430.21,183.69 L 430.21 183.69 C430.35,183.69 430.49,183.69 430.63,183.70 C434.52,183.82 438.76,183.94 440.68,183.97 L 444.00 184.06 L 444.00 239.99 L 244.62 239.96 L 45.24 239.94 L 44.65 237.01 C44.33,235.40 44.06,216.29 44.05,194.54 L 44.03 155.00 L 56.93 155.00 L 59.23 155.09 L 58.54 163.80 C58.39,165.64 58.23,167.19 58.04,168.49 C57.66,171.02 57.14,172.62 56.26,173.59 C55.18,174.80 53.56,175.06 51.01,174.96 L 51.00 174.96 C45.74,174.73 45.34,174.85 45.25,176.75 C45.11,179.37 47.15,183.01 48.40,182.39 C49.01,182.09 48.63,182.56 47.57,183.42 C46.51,184.28 45.84,185.16 46.07,185.39 C46.56,185.86 49.89,186.29 51.75,186.12 C53.62,185.94 53.26,184.21 51.25,183.69 C50.29,183.44 51.30,183.21 53.50,183.19 C56.57,183.15 57.04,183.34 55.50,183.99 C54.28,184.51 57.10,184.69 62.71,184.47 L 71.93 184.11 L 72.53 187.80 C73.31,192.64 75.83,199.86 77.83,203.00 C78.71,204.38 79.44,206.12 79.46,206.89 C79.51,208.48 79.50,208.48 101.18,209.97 C119.12,211.21 125.67,212.01 145.50,215.41 C150.24,216.22 165.03,218.14 170.16,218.61 C172.73,218.84 176.63,219.66 178.83,220.44 C181.02,221.21 183.06,221.60 183.36,221.31 C183.66,221.01 185.38,221.30 187.20,221.94 C187.31,221.98 187.46,222.02 187.63,222.07 L 187.63 222.07 L 187.66 222.07 C188.15,222.19 188.85,222.30 189.73,222.41 L 189.74 222.41 C193.96,222.93 202.46,223.39 212.50,223.62 C221.16,223.82 231.91,224.15 240.15,224.46 C240.28,224.47 240.39,224.48 240.50,224.49 C246.06,225.00 256.86,225.35 267.60,225.51 C282.54,225.87 295.02,225.73 297.54,225.09 C297.84,225.04 298.00,224.97 298.00,224.90 C298.00,224.50 298.19,224.29 298.55,224.28 C298.85,224.28 299.25,224.40 299.75,224.64 C301.80,225.64 335.86,225.82 336.24,224.83 C336.38,224.46 346.51,223.93 358.75,223.64 C370.98,223.36 381.43,222.85 381.95,222.53 C382.48,222.20 384.85,222.01 387.21,222.09 C394.65,222.37 410.58,221.79 408.75,221.31 C407.79,221.06 407.00,220.44 407.00,219.95 C407.00,219.45 404.86,219.31 402.25,219.63 L 397.50 220.23 L 403.50 216.53 C406.80,214.50 410.29,212.78 411.25,212.71 C413.42,212.54 413.58,211.00 411.43,211.00 C410.26,211.00 410.65,210.04 412.91,207.30 L 415.96 203.59 L 410.23 201.14 C403.28,198.17 393.41,197.42 380.00,198.83 C373.55,199.51 361.99,199.49 344.00,198.76 C318.31,197.72 317.25,197.76 309.33,199.83 C302.61,201.59 299.41,201.88 291.33,201.42 C285.92,201.12 271.22,200.52 258.66,200.10 C240.70,199.50 235.62,199.04 234.87,197.92 C234.34,197.14 234.17,194.01 234.48,190.96 C234.91,186.84 234.40,182.86 232.52,175.46 C231.12,169.98 229.51,164.41 228.94,163.09 L 227.90 160.68 L 222.93 165.57 C216.74,171.67 215.27,171.09 212.96,161.64 C210.80,152.77 209.93,151.98 205.21,154.54 C201.93,156.32 201.51,156.98 201.61,160.19 C201.66,162.19 202.45,166.08 203.35,168.84 C204.25,171.60 204.72,174.57 204.39,175.44 C203.46,177.84 199.13,178.56 197.20,176.63 C195.69,175.12 195.78,175.00 198.32,175.00 C202.00,175.00 202.48,173.17 200.56,166.55 C199.44,162.70 198.44,161.00 197.28,161.00 C196.01,161.00 196.29,160.31 198.50,158.00 C204.29,151.96 213.69,149.41 220.57,152.03 C222.06,152.59 223.47,152.86 223.71,152.62 C224.51,151.83 220.98,146.01 217.56,142.49 C212.20,136.97 206.28,135.60 199.68,138.36 C195.38,140.16 190.74,150.09 187.88,163.61 C186.73,169.05 185.39,174.26 184.89,175.18 C184.40,176.11 184.00,178.04 184.00,179.48 C184.00,182.03 183.89,182.08 178.75,181.50 C175.86,181.17 169.00,180.23 163.50,179.41 C148.09,177.10 134.12,175.96 129.83,176.64 C126.24,177.22 126.08,177.37 127.84,178.60 C128.89,179.34 135.99,180.65 143.62,181.53 C151.26,182.41 163.57,183.88 171.00,184.81 L 184.50 186.50 L 184.50 190.00 C184.50,193.06 184.16,193.54 181.80,193.81 C179.08,194.13 147.03,189.17 135.00,186.58 C131.43,185.80 125.94,184.62 122.81,183.94 C118.76,183.06 115.70,182.99 112.15,183.69 C109.37,184.24 106.51,184.30 105.66,183.83 C103.61,182.69 102.05,177.55 101.90,171.50 C101.71,163.59 95.27,146.71 89.82,139.78 C87.77,137.19 85.79,135.86 83.24,135.39 C79.90,134.76 79.32,135.02 76.36,138.45 C74.57,140.51 72.98,143.39 72.81,144.85 L 72.50 147.50 L 44.00 148.05 L 44.00 144.59 C44.00,142.68 44.34,140.96 44.75,140.76 C44.97,140.65 46.40,140.63 48.50,140.68 C50.42,140.92 53.79,141.17 57.00,141.30 C61.12,141.47 64.64,141.69 64.81,141.80 C64.98,141.91 64.80,141.48 64.40,140.84 ZM 392.11 189.19 C398.77,185.96 409.00,169.72 409.00,162.35 C409.00,160.05 408.80,160.00 400.25,160.12 C395.44,160.18 392.29,160.44 393.25,160.69 C393.88,160.85 394.29,161.18 394.55,162.00 L 335.00 162.00 L 335.00 177.00 L 382.87 177.00 L 365.52 177.42 C349.31,177.82 335.58,177.86 335.02,177.51 C333.57,176.62 333.72,162.68 335.20,161.20 C336.13,160.27 333.46,160.00 323.17,160.00 C308.18,160.00 307.58,160.33 310.85,166.65 C314.01,172.77 324.63,186.71 327.64,188.68 C331.73,191.36 338.10,191.87 364.07,191.60 C385.90,191.37 387.97,191.19 392.11,189.19 ZM 47.25 69.30 C48.49,69.55 50.17,69.68 51.00,69.60 C53.24,69.38 52.29,64.92 49.42,62.21 C48.09,60.95 47.00,59.49 47.00,58.96 C47.00,58.43 46.55,58.00 46.00,58.00 C45.65,58.00 45.34,58.99 45.16,60.48 C45.12,56.38 45.10,51.12 45.10,44.31 L 45.09 31.09 L 45.13 35.46 C45.24,46.71 45.71,55.68 46.17,55.40 C46.62,55.11 47.00,55.47 47.00,56.19 C47.00,58.20 51.75,63.27 52.95,62.53 C53.53,62.18 54.00,60.78 54.00,59.44 C54.00,58.10 54.42,57.00 54.93,57.00 C55.45,57.00 56.04,55.76 56.25,54.25 L 56.62 51.50 L 58.16 54.83 C59.62,58.01 59.77,58.08 61.44,56.42 C63.29,54.57 63.45,54.67 66.07,59.25 C67.84,62.35 69.23,61.22 68.83,57.00 C68.46,53.17 69.19,51.87 70.50,54.00 C70.84,54.55 71.60,55.00 72.18,55.00 C72.81,55.00 72.68,54.32 71.87,53.34 C70.80,52.04 70.78,51.58 71.75,51.25 C73.73,50.59 73.23,49.57 70.00,47.66 C68.35,46.68 67.00,45.54 67.00,45.11 C67.00,44.20 70.66,44.33 71.60,45.27 C72.50,46.17 75.00,43.46 75.00,41.57 C75.00,40.71 75.68,40.00 76.50,40.00 C77.32,40.00 78.00,39.55 78.00,39.00 C78.00,38.45 77.41,38.00 76.69,38.00 C74.49,38.00 71.36,35.14 72.60,34.27 C73.21,33.85 73.89,32.91 74.12,32.20 C74.42,31.26 75.09,31.48 76.52,32.98 C77.61,34.13 79.36,35.84 80.42,36.78 C85.66,41.47 88.00,44.22 88.00,45.66 C88.00,47.07 87.76,47.09 85.75,45.76 C84.51,44.95 82.94,43.21 82.26,41.89 C81.05,39.54 81.03,39.55 81.01,42.79 C81.00,45.91 84.42,52.00 86.19,52.00 C86.63,52.00 87.01,50.99 87.02,49.75 C87.02,48.51 87.36,47.95 87.77,48.50 C88.17,49.05 89.29,49.63 90.25,49.79 C91.54,50.01 92.00,49.41 92.00,47.54 C92.00,46.14 91.55,45.00 91.00,45.00 C90.45,45.00 90.00,44.02 90.00,42.81 C90.00,41.61 89.16,39.70 88.13,38.56 C87.10,37.43 85.97,35.15 85.62,33.50 L 84.97 30.50 L 86.95 32.82 C88.43,34.55 89.36,34.90 90.59,34.21 C91.73,33.57 91.90,33.05 91.13,32.58 C89.50,31.57 89.74,28.31 91.50,27.64 C92.32,27.32 93.00,25.92 93.00,24.53 C93.00,23.14 93.26,22.00 93.57,22.00 C94.89,22.00 97.66,25.58 100.00,30.30 C102.72,35.79 105.03,37.58 104.54,33.81 C104.37,32.54 103.93,30.77 103.56,29.88 C103.14,28.88 103.45,28.04 104.36,27.69 C105.29,27.34 105.64,26.35 105.31,25.06 C104.98,23.80 105.25,23.00 106.01,23.00 C106.97,23.00 106.96,22.66 105.96,21.45 C104.90,20.17 104.95,19.62 106.23,18.34 C107.65,16.92 107.86,16.98 108.48,18.94 C108.86,20.14 109.69,20.92 110.33,20.68 C112.08,20.04 115.92,23.97 115.40,25.86 C115.14,26.76 115.45,26.54 116.07,25.38 C117.34,22.98 121.58,22.48 122.41,24.62 C122.70,25.38 123.63,26.00 124.47,26.00 C126.43,26.00 126.46,29.38 124.50,31.00 C123.68,31.68 123.00,32.86 123.00,33.62 C123.00,34.38 122.10,35.00 121.00,35.00 C119.01,35.00 118.40,36.07 119.67,37.34 C120.04,37.70 121.05,37.40 121.92,36.65 C124.72,34.26 127.00,33.88 127.00,35.81 C127.00,36.86 125.72,38.04 123.82,38.76 C122.06,39.42 120.90,40.23 121.23,40.56 C121.56,40.89 122.66,40.72 123.68,40.17 C126.34,38.75 132.00,41.28 132.00,43.90 C132.00,45.00 132.70,46.29 133.56,46.78 C135.96,48.11 133.35,49.80 127.01,51.00 C120.31,52.27 117.72,52.27 118.50,51.00 C118.84,50.45 118.37,50.00 117.45,50.00 C116.45,50.00 116.00,50.55 116.31,51.38 C116.82,52.69 112.49,55.59 110.67,55.15 C110.22,55.04 110.14,55.86 110.49,56.97 C110.86,58.14 110.68,59.00 110.07,59.00 C109.48,59.00 109.00,58.40 109.00,57.66 C109.00,56.92 107.76,55.76 106.25,55.08 C104.04,54.09 103.74,54.09 104.74,55.11 C105.72,56.11 105.65,56.73 104.41,58.10 C103.54,59.06 102.99,61.08 103.18,62.66 C103.45,65.05 103.89,65.44 105.99,65.15 C107.37,64.95 110.14,63.30 112.16,61.48 C114.17,59.66 116.88,57.65 118.16,57.02 C119.82,56.21 119.48,56.80 117.00,59.04 C115.07,60.78 111.76,63.85 109.62,65.85 C107.20,68.13 104.99,69.37 103.73,69.16 C101.91,68.86 101.78,69.21 102.35,72.80 C102.82,75.70 102.58,77.10 101.49,78.01 C100.67,78.69 100.00,79.89 100.00,80.67 C100.00,82.51 97.17,88.00 96.22,88.00 C95.83,88.00 95.58,84.97 95.67,81.26 C95.78,77.02 95.41,74.25 94.67,73.78 C93.80,73.22 93.82,73.03 94.75,73.02 C95.44,73.01 96.00,71.88 96.00,70.50 C96.00,66.73 94.21,67.50 93.07,71.75 C91.73,76.73 90.92,88.17 91.95,87.53 C92.39,87.26 93.04,88.46 93.39,90.20 C93.80,92.27 93.59,93.64 92.76,94.15 C92.07,94.58 91.50,95.50 91.50,96.20 C91.50,96.45 91.23,96.81 90.78,97.22 C91.35,96.43 91.30,95.50 91.16,93.90 C91.00,92.03 90.78,87.50 90.68,83.83 C90.58,80.17 90.16,76.83 89.75,76.42 C89.34,76.00 89.00,76.28 89.00,77.03 C89.00,78.07 88.72,78.12 87.84,77.24 C86.97,76.37 86.98,75.73 87.89,74.63 C88.69,73.67 88.75,72.96 88.07,72.55 C87.46,72.16 87.30,70.04 87.69,67.21 C88.26,63.01 88.16,62.64 86.76,63.79 C85.48,64.85 85.09,64.85 84.60,63.79 C84.13,62.77 83.88,62.76 83.42,63.75 C82.52,65.67 80.00,65.23 80.00,63.15 C80.00,60.41 76.84,57.40 74.01,57.45 C72.19,57.49 71.10,58.41 69.90,60.93 C69.01,62.81 68.50,65.20 68.77,66.22 C69.21,67.92 66.71,70.88 64.77,70.97 C64.36,70.99 64.22,68.76 64.45,66.02 C64.67,63.27 64.43,60.77 63.91,60.45 C63.39,60.12 63.26,59.39 63.61,58.82 C64.03,58.14 63.18,58.02 61.13,58.47 C58.58,59.03 58.00,58.84 58.00,57.46 C58.00,56.07 57.73,55.98 56.52,56.98 C55.45,57.87 55.31,58.71 56.02,60.04 C57.41,62.64 57.27,63.00 54.88,63.00 C53.05,63.00 52.83,63.42 53.35,65.99 C54.06,69.56 53.29,72.00 51.44,72.00 C50.68,72.00 49.79,73.58 49.42,75.58 L 48.75 79.16 L 46.93 76.40 C46.02,75.01 45.56,73.48 45.33,67.91 C45.63,68.82 46.20,69.10 47.25,69.30 ZM 384.51 152.97 C394.32,151.26 396.74,149.22 398.46,141.24 C399.13,138.12 399.06,138.03 396.75,138.90 C395.43,139.41 388.98,140.37 382.42,141.05 C373.44,141.98 369.99,142.74 368.44,144.14 C365.78,146.53 361.20,146.52 358.56,144.12 C356.86,142.57 353.16,141.95 337.50,140.57 C327.05,139.65 317.60,138.63 316.51,138.30 C314.69,137.76 314.64,137.87 316.01,139.56 C318.94,143.18 323.56,147.09 327.21,149.03 C330.42,150.74 342.27,152.97 355.50,154.37 C361.26,154.98 377.51,154.20 384.51,152.97 ZM 298.16 190.92 C299.27,190.32 302.16,189.83 304.59,189.83 C307.02,189.83 309.00,189.60 309.00,189.32 C309.00,189.05 308.08,187.62 306.96,186.16 C305.83,184.70 303.43,181.25 301.62,178.50 C297.86,172.79 294.96,171.45 283.12,169.95 C269.83,168.27 264.38,170.23 256.40,179.56 C253.29,183.21 251.99,185.52 252.42,186.65 C252.99,188.13 253.28,188.08 255.07,186.16 C256.17,184.97 257.40,184.01 257.79,184.03 C259.42,184.10 262.15,186.95 261.54,187.93 C261.14,188.58 261.84,189.00 263.29,189.00 C264.62,189.00 268.59,189.26 272.10,189.57 L 278.50 190.14 L 275.75 187.99 C272.78,185.66 272.03,183.41 274.55,184.38 C275.41,184.71 275.84,184.55 275.52,184.03 C274.99,183.18 278.28,179.00 279.47,179.00 C279.74,179.00 280.67,180.40 281.56,182.11 C283.18,185.25 282.83,190.00 280.98,190.00 C280.44,190.00 280.00,190.45 280.00,191.00 C280.00,192.36 295.59,192.29 298.16,190.92 ZM 362.49 91.38 C359.78,89.59 355.80,88.85 350.00,88.99 C347.52,89.06 342.91,89.10 339.75,89.10 C336.29,89.10 334.00,89.52 334.00,90.17 C334.00,90.35 333.74,90.49 333.19,90.59 L 332.72 87.75 C332.42,85.96 331.83,83.63 331.41,82.58 C330.80,81.02 330.99,80.78 332.41,81.33 C335.55,82.53 333.58,79.70 328.27,75.36 C323.59,71.55 318.38,69.13 300.00,62.28 C296.42,60.95 295.08,60.17 297.00,60.56 C298.92,60.94 301.88,61.34 303.56,61.45 C305.24,61.56 307.23,62.02 307.97,62.48 C308.71,62.94 311.91,63.86 315.08,64.52 C320.51,65.65 320.78,65.62 319.73,63.94 C319.12,62.96 317.91,62.16 317.06,62.17 C316.20,62.19 310.33,60.31 304.00,58.01 C297.67,55.71 291.96,53.80 291.29,53.75 C290.63,53.70 290.32,53.29 290.60,52.83 C290.89,52.38 289.99,52.00 288.62,52.00 C287.24,52.00 285.86,51.59 285.55,51.08 C284.81,49.89 300.99,50.42 301.86,51.61 C302.21,52.10 303.40,52.65 304.50,52.84 C307.82,53.41 321.74,61.00 331.92,67.80 C341.53,74.22 355.65,85.25 362.49,91.38 ZM 184.04 107.39 C184.99,104.90 185.26,104.82 189.77,105.59 C192.37,106.04 196.52,106.43 199.00,106.45 L 203.50 106.50 L 203.34 103.01 C203.25,101.09 201.93,97.16 200.42,94.26 C197.37,88.44 194.71,87.46 191.52,90.98 C188.63,94.17 187.68,92.36 188.37,84.94 C188.71,81.22 189.23,77.34 189.51,76.33 C189.80,75.33 189.39,75.85 188.61,77.50 C187.83,79.15 186.89,83.28 186.52,86.69 C185.57,95.50 185.32,95.61 170.10,94.23 C163.10,93.60 156.56,92.77 155.55,92.38 C152.30,91.14 154.35,94.36 157.97,96.20 C159.82,97.14 161.59,98.31 161.91,98.81 C162.24,99.30 164.23,100.27 166.34,100.96 C168.45,101.65 171.60,103.44 173.34,104.95 C179.90,110.62 182.58,111.23 184.04,107.39 ZM 104.59 85.75 L 102.95 89.00 L 124.92 89.00 L 126.02 84.75 C127.87,77.53 130.16,70.70 132.30,66.00 C133.43,63.53 134.42,60.74 134.50,59.82 C134.64,58.29 134.31,58.31 130.88,60.06 C126.14,62.48 106.79,81.39 104.59,85.75 ZM 205.50 215.62 C200.94,213.47 193.40,207.07 197.10,208.49 C199.12,209.26 202.30,202.48 201.83,198.41 C201.51,195.57 201.36,195.50 195.75,195.53 C190.98,195.55 190.00,195.26 190.00,193.84 C190.00,192.37 191.01,192.16 197.25,192.32 L 204.50 192.50 L 204.39 196.00 C204.33,197.93 203.68,202.05 202.95,205.17 C201.85,209.87 201.85,211.11 202.94,212.43 C203.88,213.56 204.63,213.73 205.51,212.99 C206.34,212.30 207.61,212.28 209.34,212.94 C212.36,214.09 212.70,213.70 213.59,208.15 C213.96,205.87 214.60,204.00 215.02,204.00 C215.44,204.00 215.81,202.99 215.83,201.75 C215.85,200.51 216.30,197.70 216.82,195.50 C217.56,192.39 217.80,192.08 217.88,194.11 C218.05,197.89 225.85,206.00 229.32,206.00 C230.79,206.00 232.00,206.41 232.00,206.92 C232.00,208.73 223.03,215.68 219.19,216.82 C213.59,218.50 211.16,218.29 205.50,215.62 ZM 281.65 145.50 C283.63,144.68 286.43,143.94 287.87,143.86 C289.66,143.76 289.23,143.52 286.50,143.10 C284.30,142.77 280.92,143.01 279.00,143.63 C275.18,144.88 267.88,144.31 270.09,142.94 C270.81,142.50 272.20,142.57 273.20,143.10 C274.36,143.73 275.00,143.73 275.00,143.10 C275.00,142.07 273.56,141.53 268.00,140.50 C260.92,139.19 260.74,139.05 261.41,135.68 C261.90,133.23 261.78,132.82 260.82,133.78 C258.96,135.64 257.00,135.24 257.00,133.00 C257.00,131.90 257.45,131.00 258.00,131.00 C258.55,131.00 259.00,131.48 259.00,132.06 C259.00,132.64 259.45,132.84 260.00,132.50 C261.70,131.45 261.18,128.72 259.41,129.40 C258.44,129.77 257.09,129.13 255.95,127.75 C254.17,125.63 253.36,126.27 253.92,129.36 C254.00,129.84 253.27,130.82 252.29,131.54 C250.83,132.61 250.41,132.61 250.00,131.56 C249.69,130.78 248.77,130.54 247.61,130.95 C245.89,131.56 246.01,131.94 249.00,135.35 C257.32,144.82 272.20,149.45 281.65,145.50 ZM 79.24 199.75 C76.61,196.94 75.00,192.79 75.00,188.81 C75.00,186.25 75.23,185.95 76.46,186.97 C77.66,187.97 78.47,187.38 81.12,183.63 C82.88,181.13 84.74,179.34 85.24,179.65 C85.74,179.96 85.19,181.23 84.02,182.47 C82.23,184.38 81.94,185.74 82.20,191.12 C82.36,194.63 82.93,197.35 83.46,197.18 C84.87,196.70 85.92,200.37 84.61,201.23 C82.75,202.46 81.45,202.10 79.24,199.75 ZM 222.21 162.30 C227.29,157.33 227.09,155.79 221.04,153.61 C215.29,151.54 214.00,152.00 214.00,156.09 C214.00,159.36 216.45,166.00 217.66,166.00 C218.07,166.00 220.12,164.33 222.21,162.30 ZM 226.77 210.18 C227.21,208.86 220.58,202.00 218.88,202.00 C217.41,202.00 215.00,208.46 215.00,212.39 L 215.00 215.83 L 220.68 213.64 C223.80,212.43 226.54,210.87 226.77,210.18 ZM 262.07 83.89 C264.51,84.35 267.62,84.50 269.00,84.22 C272.11,83.60 272.89,83.00 270.61,83.00 C269.66,83.00 269.15,82.57 269.47,82.04 C269.80,81.52 270.64,81.31 271.35,81.58 C272.05,81.85 273.73,81.65 275.07,81.14 L 277.50 80.22 L 274.60 79.46 C272.92,79.02 270.36,79.19 268.53,79.85 C264.51,81.31 263.94,81.29 264.25,79.75 C264.60,78.01 258.60,77.57 257.22,79.23 C255.50,81.31 257.23,82.96 262.07,83.89 ZM 373.50 110.03 C380.96,111.96 384.89,112.45 381.50,111.03 C373.95,107.87 369.00,106.16 365.79,105.58 C363.75,105.22 360.83,104.27 359.29,103.47 C357.76,102.67 354.48,102.04 352.00,102.07 C347.93,102.12 347.74,102.23 350.00,103.16 C352.88,104.35 363.36,107.42 373.50,110.03 ZM 361.26 139.13 C361.63,137.71 361.31,137.37 359.94,137.73 C358.89,138.00 358.36,138.78 358.68,139.60 C358.89,140.14 359.13,140.52 359.39,140.73 L 359.38 140.73 C357.84,140.44 357.06,140.68 357.29,141.38 C357.50,142.00 358.53,142.66 359.58,142.86 C360.64,143.06 361.86,143.85 362.30,144.61 C363.32,146.38 364.04,146.36 366.78,144.44 C368.00,143.59 369.00,141.85 369.00,140.58 C369.00,138.17 365.54,133.00 363.93,133.00 C363.42,133.00 363.90,133.90 365.00,135.00 C367.12,137.12 367.73,141.00 365.94,141.00 C365.35,141.00 365.02,139.99 365.19,138.75 C365.39,137.28 364.98,136.50 364.00,136.50 C363.17,136.50 362.35,137.56 362.17,138.85 C361.94,140.44 361.53,140.95 360.25,140.86 C360.65,140.65 361.01,140.07 361.26,139.13 ZM 351.50 138.06 C353.62,137.21 349.16,136.63 331.50,135.48 C326.55,135.16 320.70,134.64 318.50,134.32 C315.55,133.90 314.78,134.04 315.56,134.88 C316.14,135.50 322.89,136.63 330.56,137.39 C347.23,139.04 348.91,139.10 351.50,138.06 ZM 206.50 115.32 C214.42,117.10 215.19,115.34 208.25,111.36 C201.16,107.29 198.00,107.00 198.00,110.42 C198.00,112.81 199.72,113.80 206.50,115.32 ZM 406.63 141.75 C407.22,143.96 411.00,145.04 411.00,143.00 C411.00,142.45 411.62,142.00 412.38,142.00 C413.51,142.00 413.55,141.40 412.62,138.75 C410.97,134.05 410.12,133.00 407.94,133.00 C406.42,133.00 406.00,133.69 406.01,136.25 C406.02,138.04 406.30,140.51 406.63,141.75 ZM 81.04 61.68 C81.07,64.48 81.08,64.48 82.33,62.24 C83.23,60.62 83.89,60.29 84.66,61.06 C85.44,61.84 85.96,61.35 86.49,59.32 L 87.24 56.50 L 88.44 59.94 C90.06,64.60 92.00,65.09 91.98,60.83 C91.96,56.20 90.88,54.92 87.29,55.31 C83.32,55.75 80.99,58.12 81.04,61.68 ZM 110.74 44.11 C111.21,45.89 111.43,45.98 112.16,44.68 C113.00,43.18 110.42,35.91 108.79,35.18 C108.40,35.00 108.34,33.54 108.66,31.93 C109.08,29.83 108.86,29.00 107.88,29.00 C105.93,29.00 105.74,34.67 107.59,37.49 C109.23,40.00 108.26,41.42 105.59,40.40 C104.72,40.06 104.00,40.28 104.00,40.89 C104.00,41.50 104.34,41.95 104.75,41.88 C107.92,41.38 110.25,42.25 110.74,44.11 ZM 87.45 168.92 C86.63,167.59 89.08,152.00 90.11,152.00 C91.79,152.00 92.08,156.06 90.52,157.63 C88.32,159.83 88.80,167.35 91.17,167.80 C92.26,168.01 93.00,167.31 93.29,165.81 C93.62,164.07 93.76,164.30 93.86,166.75 C93.99,169.71 93.74,170.00 91.06,170.00 C89.44,170.00 87.82,169.52 87.45,168.92 ZM 443.86 111.26 C443.61,109.35 443.15,107.89 442.50,107.64 C440.70,106.95 440.47,103.89 442.25,104.25 C443.23,104.45 443.56,94.91 443.76,59.75 L 444.00 18.54 L 444.00 71.47 C444.00,90.13 443.97,102.79 443.86,111.26 ZM 283.00 50.14 C283.00,51.25 275.25,51.11 272.00,49.94 C270.62,49.45 265.90,48.61 261.50,48.07 L 253.50 47.10 L 263.00 47.59 C276.26,48.27 283.00,49.13 283.00,50.14 ZM 391.00 136.98 L 394.50 136.20 L 390.00 136.11 C382.18,135.94 369.04,137.26 369.59,138.15 C370.16,139.08 385.32,138.25 391.00,136.98 ZM 277.36 75.50 C277.05,74.68 276.05,73.96 275.14,73.92 C274.03,73.87 273.92,73.68 274.80,73.32 C276.75,72.54 273.10,70.06 270.00,70.07 L 267.50 70.07 L 269.87 71.39 L 272.25 72.70 L 269.87 73.45 C267.66,74.14 267.78,74.28 271.50,75.52 C276.85,77.30 278.05,77.29 277.36,75.50 ZM 271.74 137.63 C277.33,141.07 277.58,140.97 275.87,136.07 C274.94,133.39 274.38,132.95 272.62,133.51 C271.46,133.89 269.73,134.25 268.80,134.31 C266.74,134.45 266.94,134.68 271.74,137.63 ZM 115.16 50.14 C115.25,48.69 115.43,45.81 115.56,43.75 C115.83,39.54 114.43,39.55 113.64,43.76 C111.89,53.17 111.88,53.98 113.46,53.38 C114.31,53.05 115.07,51.60 115.16,50.14 ZM 263.79 125.84 L 260.86 127.69 L 264.18 127.83 C266.01,127.90 268.82,127.69 270.42,127.36 L 273.35 126.77 L 270.03 125.37 C267.07,124.12 266.42,124.17 263.79,125.84 ZM 288.67 138.74 C292.68,141.68 295.89,139.03 292.47,135.61 C291.09,134.23 290.73,134.25 288.94,135.78 C287.08,137.38 287.06,137.57 288.67,138.74 ZM 78.83 171.33 C77.31,170.93 75.00,166.28 75.00,163.65 C75.00,162.22 76.91,164.19 78.39,167.15 C79.02,168.42 80.66,170.03 82.02,170.72 C84.13,171.78 84.20,171.96 82.50,171.87 C81.40,171.81 79.75,171.57 78.83,171.33 ZM 120.43 47.75 C120.20,48.99 120.40,50.00 120.87,50.00 C122.06,50.00 127.20,45.87 126.68,45.34 C125.82,44.49 121.00,43.98 120.93,44.73 C120.88,45.15 120.66,46.51 120.43,47.75 ZM 131.17 117.35 C133.79,114.97 133.43,113.87 130.25,114.56 C125.46,115.61 125.02,115.89 125.62,117.46 C126.40,119.47 128.88,119.42 131.17,117.35 ZM 79.64 157.28 C78.24,154.51 77.36,151.97 77.70,151.64 C78.55,150.79 80.93,154.14 80.97,156.25 C81.01,158.78 82.78,158.40 83.29,155.75 C83.63,153.99 83.75,154.16 83.85,156.50 C84.09,162.38 82.38,162.69 79.64,157.28 ZM 97.00 47.00 C97.00,49.16 99.43,49.73 100.60,47.84 C101.65,46.14 101.91,41.00 100.95,41.00 C100.50,41.00 99.85,41.90 99.50,43.00 C99.15,44.10 98.45,45.00 97.93,45.00 C97.42,45.00 97.00,45.90 97.00,47.00 ZM 91.50 185.00 C91.16,184.45 90.01,184.00 88.94,184.00 C87.45,184.00 87.00,183.30 87.00,180.97 C87.00,179.16 87.62,177.70 88.54,177.35 C90.79,176.48 91.79,177.98 89.74,179.12 C87.28,180.50 87.58,181.86 90.50,182.59 C91.88,182.93 93.00,183.84 93.00,184.61 C93.00,186.24 92.37,186.41 91.50,185.00 ZM 195.82 126.13 C196.89,125.45 196.83,124.97 195.50,123.65 C193.69,121.83 191.43,121.50 190.55,122.92 C189.98,123.84 192.54,127.01 193.82,126.98 C194.19,126.98 195.10,126.59 195.82,126.13 ZM 96.06 38.06 C99.30,40.11 100.55,38.29 98.55,34.43 L 97.11 31.66 L 95.86 34.40 C94.83,36.68 94.86,37.30 96.06,38.06 ZM 68.16 144.00 C70.42,147.06 72.00,147.85 72.00,145.93 C72.00,143.63 69.83,141.00 67.93,141.00 C65.99,141.00 66.00,141.08 68.16,144.00 ZM 81.00 191.79 C81.00,188.56 79.53,188.14 78.04,190.93 C76.53,193.75 76.75,194.57 79.00,194.57 C80.52,194.57 81.00,193.90 81.00,191.79 ZM 86.00 89.08 C86.00,88.03 85.44,86.97 84.75,86.72 C84.06,86.47 83.86,85.89 84.30,85.42 C85.49,84.15 88.45,86.40 88.82,88.85 C89.03,90.27 88.61,91.00 87.57,91.00 C86.69,91.00 86.00,90.16 86.00,89.08 ZM 271.00 59.00 C271.00,60.97 264.44,59.59 263.62,57.44 C262.99,55.81 265.53,55.42 266.50,57.00 C266.84,57.55 267.99,58.00 269.06,58.00 C270.13,58.00 271.00,58.45 271.00,59.00 ZM 441.53 109.41 C442.42,110.77 443.01,112.88 442.83,114.11 C442.53,116.14 442.38,116.19 441.13,114.67 C440.04,113.34 440.02,113.00 441.05,113.00 C441.85,113.00 441.48,112.08 440.10,110.61 C438.73,109.15 438.25,107.96 438.88,107.57 C439.45,107.22 440.64,108.05 441.53,109.41 ZM 107.36 48.48 C107.68,49.32 108.71,49.63 110.02,49.28 C111.20,48.98 111.76,48.45 111.26,48.11 C110.76,47.78 110.02,46.60 109.61,45.50 C108.90,43.60 108.81,43.59 107.85,45.31 C107.29,46.31 107.07,47.73 107.36,48.48 ZM 410.61 129.81 C411.30,133.24 412.60,134.11 412.77,131.25 C412.97,127.87 411.92,124.68 410.93,125.67 C410.41,126.19 410.26,128.06 410.61,129.81 ZM 356.40 135.68 C356.30,138.82 356.33,138.84 358.56,137.18 C360.18,135.97 360.42,135.41 359.41,135.18 C357.45,134.73 357.65,133.25 359.75,132.64 C360.76,132.35 360.44,132.21 359.00,132.32 C356.92,132.47 356.48,133.03 356.40,135.68 ZM 78.00 130.05 C78.00,131.23 78.52,131.99 79.18,131.77 C80.80,131.23 82.58,128.24 81.76,127.42 C80.51,126.17 78.00,127.93 78.00,130.05 ZM 415.83 135.50 C415.58,131.88 414.00,130.51 414.00,133.92 C414.00,134.97 413.73,136.55 413.39,137.42 C412.99,138.46 413.34,139.00 414.42,139.00 C415.67,139.00 416.01,138.17 415.83,135.50 ZM 51.80 180.74 C52.45,179.96 52.75,179.08 52.46,178.79 C52.17,178.50 53.09,178.49 54.51,178.76 C57.85,179.39 57.17,181.40 53.48,181.84 C51.09,182.11 50.81,181.93 51.80,180.74 ZM 94.00 61.21 C94.00,61.83 94.59,61.75 95.50,61.00 C96.32,60.32 97.00,58.69 97.00,57.38 C97.00,55.93 96.41,55.00 95.50,55.00 C93.69,55.00 93.50,57.60 95.25,58.42 C96.25,58.88 96.25,59.12 95.25,59.58 C94.56,59.90 94.00,60.63 94.00,61.21 ZM 177.00 102.20 C177.00,101.54 175.99,100.99 174.75,100.98 C173.51,100.98 171.82,100.49 171.00,99.90 C169.89,99.12 170.67,99.00 173.96,99.47 C179.16,100.19 179.79,100.61 178.18,102.22 C177.27,103.13 177.00,103.12 177.00,102.20 ZM 249.00 169.06 C249.00,166.86 247.49,165.58 246.00,166.50 C245.33,166.91 245.34,167.77 246.03,169.06 C247.37,171.56 249.00,171.56 249.00,169.06 ZM 352.25 98.35 C351.29,98.63 352.08,98.77 354.00,98.68 C357.72,98.49 359.05,95.83 355.75,95.19 C354.71,94.99 354.00,95.46 354.00,96.35 C354.00,97.18 353.21,98.08 352.25,98.35 ZM 278.00 58.53 C278.00,59.39 275.54,58.81 272.51,57.22 C270.86,56.36 270.05,55.48 270.69,55.27 C271.86,54.88 278.00,57.62 278.00,58.53 ZM 440.41 116.50 C442.90,118.99 442.87,119.14 439.97,118.35 C438.20,117.87 435.51,114.00 436.95,114.00 C437.48,114.00 439.03,115.12 440.41,116.50 ZM 127.50 182.00 C130.33,183.22 135.25,183.22 134.50,182.00 C134.16,181.45 132.00,181.03 129.69,181.07 C126.43,181.12 125.95,181.33 127.50,182.00 ZM 247.00 54.00 C248.15,54.74 247.80,54.97 245.50,54.97 C243.85,54.97 241.82,54.53 241.00,54.00 C239.85,53.26 240.20,53.03 242.50,53.03 C244.15,53.03 246.18,53.47 247.00,54.00 ZM 181.75 104.56 C179.98,103.27 180.38,102.00 182.56,102.00 C183.96,102.00 185.28,104.71 184.20,105.38 C183.80,105.62 182.70,105.26 181.75,104.56 ZM 72.00 63.52 C72.00,61.92 76.09,60.48 78.21,61.32 C78.92,61.61 78.26,61.88 76.75,61.92 C75.01,61.97 74.00,62.55 74.00,63.50 C74.00,64.32 73.55,65.00 73.00,65.00 C72.45,65.00 72.00,64.33 72.00,63.52 ZM 105.82 46.67 C106.01,45.68 105.50,45.00 104.57,45.00 C103.65,45.00 103.00,45.85 103.00,47.08 C103.00,49.52 105.34,49.18 105.82,46.67 ZM 281.00 132.00 C279.86,132.74 280.28,132.97 282.75,132.98 C284.54,132.99 286.00,132.55 286.00,132.00 C286.00,130.73 282.97,130.73 281.00,132.00 ZM 278.24 134.50 C277.98,133.12 277.37,132.00 276.88,132.00 C275.85,132.00 275.75,133.20 276.61,135.42 C277.57,137.93 278.77,137.25 278.24,134.50 ZM 89.55 73.75 C89.09,74.94 89.21,75.18 89.91,74.48 C91.06,73.34 90.25,69.00 88.88,69.00 C88.40,69.00 88.00,69.68 88.00,70.50 C88.00,71.32 88.50,72.00 89.11,72.00 C89.75,72.00 89.93,72.74 89.55,73.75 ZM 137.00 183.00 C138.98,184.28 142.29,184.28 141.50,183.00 C141.16,182.45 139.67,182.01 138.19,182.02 C136.09,182.03 135.83,182.24 137.00,183.00 ZM 59.58 40.24 C59.89,40.56 59.98,42.10 59.77,43.66 L 59.39 46.50 L 58.57 43.70 C57.79,41.02 58.37,39.04 59.58,40.24 ZM 262.50 122.00 C262.16,121.45 261.01,121.00 259.94,121.00 C258.87,121.00 258.00,121.45 258.00,122.00 C258.00,122.55 259.15,123.00 260.56,123.00 C262.01,123.00 262.85,122.57 262.50,122.00 ZM 87.00 197.30 C87.00,196.15 87.68,194.95 88.50,194.64 C90.38,193.92 90.37,194.93 88.47,197.44 C87.03,199.35 87.00,199.35 87.00,197.30 ZM 211.23 154.00 C211.92,155.10 212.60,156.00 212.74,156.00 C212.88,156.00 213.00,155.10 213.00,154.00 C213.00,152.88 212.33,152.00 211.49,152.00 C210.23,152.00 210.19,152.33 211.23,154.00 ZM 210.50 216.00 C208.73,216.76 208.81,216.87 211.25,216.93 C212.76,216.97 214.00,216.55 214.00,216.00 C214.00,214.83 213.23,214.83 210.50,216.00 ZM 45.00 78.94 C45.00,77.88 45.40,77.24 45.90,77.45 C46.00,77.62 46.11,77.80 46.22,77.99 C46.89,79.06 47.10,79.71 46.84,80.33 C46.66,80.73 46.35,81.00 46.00,81.00 C45.45,81.00 45.00,80.07 45.00,78.94 ZM 186.00 48.00 C187.21,48.78 187.07,48.97 185.25,48.98 C184.01,48.99 183.00,48.55 183.00,48.00 C183.00,46.75 184.06,46.75 186.00,48.00 ZM 243.00 167.00 C243.00,166.45 242.32,166.00 241.50,166.00 C240.68,166.00 240.00,166.45 240.00,167.00 C240.00,167.55 240.68,168.00 241.50,168.00 C242.32,168.00 243.00,167.55 243.00,167.00 ZM 59.47 66.95 C58.52,65.41 59.82,64.42 61.10,65.70 C61.82,66.42 61.84,66.98 61.16,67.40 C60.60,67.75 59.84,67.55 59.47,66.95 ZM 187.50 237.00 C187.84,237.55 188.54,238.00 189.06,238.00 C189.58,238.00 190.00,237.55 190.00,237.00 C190.00,236.45 189.30,236.00 188.44,236.00 C187.58,236.00 187.16,236.45 187.50,237.00 ZM 277.50 130.00 C277.16,130.55 277.58,131.00 278.44,131.00 C279.30,131.00 280.00,130.55 280.00,130.00 C280.00,129.45 279.58,129.00 279.06,129.00 C278.54,129.00 277.84,129.45 277.50,130.00 ZM 63.00 40.94 C63.00,41.46 62.55,42.16 62.00,42.50 C61.45,42.84 61.00,42.42 61.00,41.56 C61.00,40.70 61.45,40.00 62.00,40.00 C62.55,40.00 63.00,40.42 63.00,40.94 ZM 84.00 77.00 C84.00,76.45 84.45,76.00 85.00,76.00 C85.55,76.00 86.00,76.45 86.00,77.00 C86.00,77.55 85.55,78.00 85.00,78.00 C84.45,78.00 84.00,77.55 84.00,77.00 ZM 69.00 180.00 C69.00,179.45 69.45,179.00 70.00,179.00 C70.55,179.00 71.00,179.45 71.00,180.00 C71.00,180.55 70.55,181.00 70.00,181.00 C69.45,181.00 69.00,180.55 69.00,180.00 ZM 100.00 58.00 C100.00,58.55 100.45,59.00 101.00,59.00 C101.55,59.00 102.00,58.55 102.00,58.00 C102.00,57.45 101.55,57.00 101.00,57.00 C100.45,57.00 100.00,57.45 100.00,58.00 ZM 413.00 230.00 C413.00,229.45 412.55,229.00 412.00,229.00 C411.45,229.00 411.00,229.45 411.00,230.00 C411.00,230.55 411.45,231.00 412.00,231.00 C412.55,231.00 413.00,230.55 413.00,230.00 ZM 144.71 55.61 C143.71,56.62 142.79,58.42 141.86,61.27 C142.17,60.28 142.46,59.42 142.72,58.78 C143.30,57.30 143.76,56.32 144.71,55.61 Z" fill="#14BDEB"/>
<path d="M 170.38 490.91 C166.46,489.78 165.43,488.47 164.70,483.75 C164.15,480.17 164.25,480.00 166.94,480.00 C169.27,480.00 169.85,480.52 170.36,483.06 C170.94,485.96 171.19,486.10 175.24,485.81 C179.47,485.50 179.50,485.48 179.50,481.59 L 179.50 477.68 L 173.08 475.87 C165.47,473.73 165.19,473.50 164.68,468.99 C163.68,460.04 167.64,456.33 177.20,457.24 C183.37,457.84 186.27,460.60 185.80,465.42 C185.55,467.95 185.06,468.50 183.01,468.50 C181.32,468.50 180.41,467.86 180.16,466.50 C179.58,463.38 178.00,462.00 175.00,462.00 C171.66,462.00 169.73,464.08 170.17,467.19 C170.44,469.06 171.73,469.90 176.87,471.56 C184.20,473.92 186.00,475.84 186.00,481.26 C186.00,486.42 184.53,488.88 180.45,490.58 C176.66,492.17 174.91,492.23 170.38,490.91 ZM 323.50 490.91 C319.68,489.80 318.00,487.48 318.00,483.31 C318.00,480.45 318.34,480.00 320.50,480.00 C322.28,480.00 323.00,480.54 323.00,481.88 C323.00,484.64 325.42,486.18 329.18,485.82 C332.32,485.52 332.50,485.29 332.50,481.56 C332.50,477.62 332.49,477.62 326.71,475.90 C318.75,473.54 318.00,472.72 318.00,466.45 C318.00,459.43 320.75,457.00 328.68,457.00 C335.49,457.00 339.00,459.90 339.00,465.52 C339.00,468.87 338.80,469.11 336.25,468.82 C334.19,468.58 333.41,467.88 333.15,466.00 C332.73,463.01 331.42,462.04 327.79,462.02 C324.67,462.00 322.54,464.99 323.51,468.03 C323.93,469.36 325.94,470.50 329.81,471.61 C337.74,473.87 339.00,475.23 339.00,481.48 C339.00,485.56 338.52,487.10 336.73,488.79 C334.15,491.21 327.95,492.21 323.50,490.91 ZM 203.00 489.65 C203.00,488.27 208.50,462.66 209.65,458.70 C210.07,457.24 211.04,456.95 214.82,457.20 L 219.46 457.50 L 220.80 463.50 C221.53,466.80 223.18,474.34 224.46,480.25 L 226.79 491.00 L 224.01 491.00 C221.56,491.00 221.11,490.48 220.10,486.50 C218.97,482.02 218.96,482.00 214.54,482.00 C210.13,482.00 210.11,482.02 209.28,486.25 C208.57,489.88 208.05,490.55 205.72,490.82 C203.84,491.04 203.00,490.67 203.00,489.65 ZM 217.42 474.25 C215.24,464.58 214.78,463.44 213.96,465.62 C213.52,466.78 212.85,469.82 212.47,472.37 L 211.77 477.00 L 214.91 477.00 C217.81,477.00 217.99,476.80 217.42,474.25 ZM 244.00 474.00 L 244.00 457.00 L 247.00 457.00 L 250.00 457.00 L 250.00 471.50 L 250.00 486.00 L 256.50 486.00 C262.77,486.00 263.00,486.09 263.00,488.50 C263.00,490.99 262.97,491.00 253.50,491.00 L 244.00 491.00 L 244.00 474.00 ZM 280.00 474.00 L 280.00 457.00 L 289.50 457.00 C298.97,457.00 299.00,457.01 299.00,459.50 C299.00,461.91 298.77,462.00 292.50,462.00 L 286.00 462.00 L 286.00 467.00 L 286.00 472.00 L 291.00 472.00 C295.67,472.00 296.00,472.17 296.00,474.50 C296.00,476.83 295.67,477.00 291.00,477.00 L 286.00 477.00 L 286.00 481.50 L 286.00 486.00 L 292.50 486.00 C298.77,486.00 299.00,486.09 299.00,488.50 C299.00,490.99 298.97,491.00 289.50,491.00 L 280.00 491.00 L 280.00 474.00 ZM 45.00 345.50 L 45.00 250.00 L 65.00 250.00 L 85.00 250.00 L 85.00 345.50 L 85.00 441.00 L 65.00 441.00 L 45.00 441.00 L 45.00 345.50 ZM 93.00 345.50 L 93.00 250.00 L 264.50 250.00 L 436.00 250.00 L 436.00 345.50 L 436.00 441.00 L 264.50 441.00 L 93.00 441.00 L 93.00 345.50 ZM 281.00 436.94 C297.18,434.34 307.06,425.88 309.90,412.20 C311.36,405.18 311.31,371.88 309.84,364.53 C308.38,357.27 303.86,350.41 297.94,346.45 L 293.38 343.41 L 297.75 339.19 C306.05,331.18 306.50,329.18 306.50,300.00 L 306.50 274.50 L 303.70 268.80 C299.08,259.39 290.53,253.93 277.47,252.05 C273.64,251.49 253.06,251.03 231.75,251.02 L 193.00 251.00 L 193.00 343.83 C193.00,394.89 193.30,436.97 193.67,437.33 C194.77,438.44 273.90,438.08 281.00,436.94 ZM 187.50 237.00 C187.16,236.45 187.58,236.00 188.44,236.00 C189.30,236.00 190.00,236.45 190.00,237.00 C190.00,237.55 189.58,238.00 189.06,238.00 C188.54,238.00 187.84,237.55 187.50,237.00 ZM 210.50 216.00 C213.23,214.83 214.00,214.83 214.00,216.00 C214.00,216.55 212.76,216.97 211.25,216.93 C208.81,216.87 208.73,216.76 210.50,216.00 ZM 137.00 183.00 C135.83,182.24 136.09,182.03 138.19,182.02 C139.67,182.01 141.16,182.45 141.50,183.00 C142.29,184.28 138.98,184.28 137.00,183.00 ZM 127.50 182.00 C125.95,181.33 126.43,181.12 129.69,181.07 C132.00,181.03 134.16,181.45 134.50,182.00 C135.25,183.22 130.33,183.22 127.50,182.00 ZM 335.00 169.50 L 335.00 162.00 L 365.00 162.00 L 395.00 162.00 L 395.00 169.50 L 395.00 177.00 L 365.00 177.00 L 335.00 177.00 L 335.00 169.50 ZM 211.23 154.00 C210.19,152.33 210.23,152.00 211.49,152.00 C212.33,152.00 213.00,152.88 213.00,154.00 C213.00,155.10 212.88,156.00 212.74,156.00 C212.60,156.00 211.92,155.10 211.23,154.00 ZM 68.16 144.00 C66.00,141.08 65.99,141.00 67.93,141.00 C69.83,141.00 72.00,143.63 72.00,145.93 C72.00,147.85 70.42,147.06 68.16,144.00 ZM 362.30 144.61 C361.86,143.85 360.64,143.06 359.58,142.86 C358.53,142.66 357.50,142.00 357.29,141.38 C357.06,140.68 357.84,140.44 359.38,140.73 C361.36,141.11 361.90,140.75 362.17,138.85 C362.35,137.56 363.17,136.50 364.00,136.50 C364.98,136.50 365.39,137.28 365.19,138.75 C365.02,139.99 365.35,141.00 365.94,141.00 C367.73,141.00 367.12,137.12 365.00,135.00 C363.90,133.90 363.42,133.00 363.93,133.00 C365.54,133.00 369.00,138.17 369.00,140.58 C369.00,141.85 368.00,143.59 366.78,144.44 C364.04,146.36 363.32,146.38 362.30,144.61 ZM 406.63 141.75 C406.30,140.51 406.02,138.04 406.01,136.25 C406.00,133.69 406.42,133.00 407.94,133.00 C410.12,133.00 410.97,134.05 412.62,138.75 C413.55,141.40 413.51,142.00 412.38,142.00 C411.62,142.00 411.00,142.45 411.00,143.00 C411.00,145.04 407.22,143.96 406.63,141.75 ZM 271.74 137.63 C266.94,134.68 266.74,134.45 268.80,134.31 C269.73,134.25 271.46,133.89 272.62,133.51 C274.38,132.95 274.94,133.39 275.87,136.07 C277.58,140.97 277.33,141.07 271.74,137.63 ZM 288.67 138.74 C287.06,137.57 287.08,137.38 288.94,135.78 C290.73,134.25 291.09,134.23 292.47,135.61 C295.89,139.03 292.68,141.68 288.67,138.74 ZM 356.40 135.68 C356.48,133.03 356.92,132.47 359.00,132.32 C360.44,132.21 360.76,132.35 359.75,132.64 C357.65,133.25 357.45,134.73 359.41,135.18 C360.42,135.41 360.18,135.97 358.56,137.18 C356.33,138.84 356.30,138.82 356.40,135.68 ZM 281.00 132.00 C282.97,130.73 286.00,130.73 286.00,132.00 C286.00,132.55 284.54,132.99 282.75,132.98 C280.28,132.97 279.86,132.74 281.00,132.00 ZM 410.61 129.81 C410.26,128.06 410.41,126.19 410.93,125.67 C411.92,124.68 412.97,127.87 412.77,131.25 C412.60,134.11 411.30,133.24 410.61,129.81 ZM 78.00 130.05 C78.00,127.93 80.51,126.17 81.76,127.42 C82.58,128.24 80.80,131.23 79.18,131.77 C78.52,131.99 78.00,131.23 78.00,130.05 ZM 277.50 130.00 C277.84,129.45 278.54,129.00 279.06,129.00 C279.58,129.00 280.00,129.45 280.00,130.00 C280.00,130.55 279.30,131.00 278.44,131.00 C277.58,131.00 277.16,130.55 277.50,130.00 ZM 247.51 126.02 C246.13,123.83 245.00,121.58 245.00,121.02 C245.00,120.46 244.40,120.00 243.66,120.00 C242.08,120.00 239.72,112.90 240.56,110.70 C240.98,109.61 240.23,109.00 237.82,108.50 C233.83,107.67 216.39,98.63 213.32,95.80 C209.25,92.04 211.10,91.41 225.27,91.71 C233.95,91.90 237.81,91.67 236.50,91.07 C235.40,90.56 230.83,90.11 226.34,90.07 C217.05,89.99 217.10,90.02 209.50,78.23 C207.30,74.81 205.01,72.01 204.40,72.01 C203.80,72.00 201.18,69.10 198.58,65.56 C192.36,57.08 189.99,55.11 192.91,60.82 C194.93,64.77 194.95,65.04 193.24,64.13 C192.21,63.58 188.38,60.19 184.72,56.60 C176.31,48.36 170.94,46.48 158.06,47.27 C153.35,47.56 148.38,48.30 147.00,48.93 L 144.50 50.06 L 147.00 49.48 C148.38,49.16 153.21,48.63 157.74,48.31 C166.50,47.68 173.37,49.33 176.17,52.71 C177.37,54.17 177.07,54.24 173.00,53.44 C170.52,52.96 162.71,52.56 155.64,52.56 C143.56,52.56 142.67,52.69 140.98,54.78 C139.19,56.99 137.32,57.91 138.50,56.00 C140.91,52.09 126.92,59.65 118.22,66.95 C109.50,74.26 98.78,87.45 99.19,90.35 C99.47,92.26 100.33,92.57 107.00,93.15 C125.88,94.80 138.42,96.26 149.50,98.10 C156.10,99.20 162.88,100.31 164.57,100.56 C166.27,100.82 168.94,102.38 170.53,104.03 L 173.40 107.03 L 170.45 106.51 C150.44,102.95 143.28,101.88 136.50,101.42 C132.10,101.11 127.06,100.42 125.30,99.87 C123.12,99.19 121.47,99.22 120.11,99.94 C119.02,100.52 116.96,101.00 115.52,101.00 C113.66,101.00 112.41,101.87 111.20,103.99 C110.27,105.64 109.05,106.99 108.50,106.98 C107.95,106.98 102.70,106.14 96.83,105.11 C90.95,104.09 84.92,103.48 83.43,103.77 C79.39,104.54 81.22,102.35 86.84,99.68 C89.40,98.47 91.50,96.90 91.50,96.20 C91.50,95.50 92.07,94.58 92.76,94.15 C93.59,93.64 93.80,92.27 93.39,90.20 C93.04,88.46 92.39,87.26 91.95,87.53 C90.92,88.17 91.73,76.73 93.07,71.75 C94.21,67.50 96.00,66.73 96.00,70.50 C96.00,71.88 95.44,73.01 94.75,73.02 C93.82,73.03 93.80,73.22 94.67,73.78 C95.41,74.25 95.78,77.02 95.67,81.26 C95.58,84.97 95.83,88.00 96.22,88.00 C97.17,88.00 100.00,82.51 100.00,80.67 C100.00,79.89 100.67,78.69 101.49,78.01 C102.58,77.10 102.82,75.70 102.35,72.80 C101.78,69.21 101.91,68.86 103.73,69.16 C104.99,69.37 107.20,68.13 109.62,65.85 C111.76,63.85 115.07,60.78 117.00,59.04 C119.48,56.80 119.82,56.21 118.16,57.02 C116.88,57.65 114.17,59.66 112.16,61.48 C110.14,63.30 107.37,64.95 105.99,65.15 C103.89,65.44 103.45,65.05 103.18,62.66 C102.99,61.08 103.54,59.06 104.41,58.10 C105.65,56.73 105.72,56.11 104.74,55.11 C103.74,54.09 104.04,54.09 106.25,55.08 C107.76,55.76 109.00,56.92 109.00,57.66 C109.00,58.40 109.48,59.00 110.07,59.00 C110.68,59.00 110.86,58.14 110.49,56.97 C110.14,55.86 110.22,55.04 110.67,55.15 C112.49,55.59 116.82,52.69 116.31,51.38 C116.00,50.55 116.45,50.00 117.45,50.00 C118.37,50.00 118.84,50.45 118.50,51.00 C117.72,52.27 120.31,52.27 127.01,51.00 C133.35,49.80 135.96,48.11 133.56,46.78 C132.70,46.29 132.00,45.00 132.00,43.90 C132.00,41.28 126.34,38.75 123.68,40.17 C122.66,40.72 121.56,40.89 121.23,40.56 C120.90,40.23 122.06,39.42 123.82,38.76 C125.72,38.04 127.00,36.86 127.00,35.81 C127.00,33.88 124.72,34.26 121.92,36.65 C121.05,37.40 120.04,37.70 119.67,37.34 C118.40,36.07 119.01,35.00 121.00,35.00 C122.10,35.00 123.00,34.38 123.00,33.62 C123.00,32.86 123.68,31.68 124.50,31.00 C126.46,29.38 126.43,26.00 124.47,26.00 C123.63,26.00 122.70,25.38 122.41,24.62 C121.58,22.48 117.34,22.98 116.07,25.38 C115.45,26.54 115.14,26.76 115.40,25.86 C115.92,23.97 112.08,20.04 110.33,20.68 C109.69,20.92 108.86,20.14 108.48,18.94 C107.86,16.98 107.65,16.92 106.23,18.34 C104.95,19.62 104.90,20.17 105.96,21.45 C106.96,22.66 106.97,23.00 106.01,23.00 C105.25,23.00 104.98,23.80 105.31,25.06 C105.64,26.35 105.29,27.34 104.36,27.69 C103.45,28.04 103.14,28.88 103.56,29.88 C103.93,30.77 104.37,32.54 104.54,33.81 C105.03,37.58 102.72,35.79 100.00,30.30 C97.66,25.58 94.89,22.00 93.57,22.00 C93.26,22.00 93.00,23.14 93.00,24.53 C93.00,25.92 92.32,27.32 91.50,27.64 C89.74,28.31 89.50,31.57 91.13,32.58 C91.90,33.05 91.73,33.57 90.59,34.21 C89.36,34.90 88.43,34.55 86.95,32.82 L 84.97 30.50 L 85.62 33.50 C85.97,35.15 87.10,37.43 88.13,38.56 C89.16,39.70 90.00,41.61 90.00,42.81 C90.00,44.02 90.45,45.00 91.00,45.00 C91.55,45.00 92.00,46.14 92.00,47.54 C92.00,49.41 91.54,50.01 90.25,49.79 C89.29,49.63 88.17,49.05 87.77,48.50 C87.36,47.95 87.02,48.51 87.02,49.75 C87.01,50.99 86.63,52.00 86.19,52.00 C84.42,52.00 81.00,45.91 81.01,42.79 C81.03,39.55 81.05,39.54 82.26,41.89 C82.94,43.21 84.51,44.95 85.75,45.76 C87.76,47.09 88.00,47.07 88.00,45.66 C88.00,44.22 85.66,41.47 80.42,36.78 C79.36,35.84 77.61,34.13 76.52,32.98 C75.09,31.48 74.42,31.26 74.12,32.20 C73.89,32.91 73.21,33.85 72.60,34.27 C71.36,35.14 74.49,38.00 76.69,38.00 C77.41,38.00 78.00,38.45 78.00,39.00 C78.00,39.55 77.32,40.00 76.50,40.00 C75.68,40.00 75.00,40.71 75.00,41.57 C75.00,43.46 72.50,46.17 71.60,45.27 C70.66,44.33 67.00,44.20 67.00,45.11 C67.00,45.54 68.35,46.68 70.00,47.66 C73.23,49.57 73.73,50.59 71.75,51.25 C70.78,51.58 70.80,52.04 71.87,53.34 C72.68,54.32 72.81,55.00 72.18,55.00 C71.60,55.00 70.84,54.55 70.50,54.00 C69.19,51.87 68.46,53.17 68.83,57.00 C69.23,61.22 67.84,62.35 66.07,59.25 C63.45,54.67 63.29,54.57 61.44,56.42 C59.77,58.08 59.62,58.01 58.16,54.83 L 56.62 51.50 L 56.25 54.25 C56.04,55.76 55.45,57.00 54.93,57.00 C54.42,57.00 54.00,58.10 54.00,59.44 C54.00,60.78 53.53,62.18 52.95,62.53 C51.75,63.27 47.00,58.20 47.00,56.19 C47.00,55.47 46.62,55.11 46.17,55.40 C45.71,55.68 45.24,46.71 45.13,35.46 L 44.93 15.00 L 244.48 15.00 L 444.02 15.00 L 443.76 59.75 C443.56,94.91 443.23,104.45 442.25,104.25 C440.47,103.89 440.70,106.95 442.50,107.64 C444.58,108.44 444.66,121.53 442.60,122.32 C441.83,122.62 440.89,122.56 440.51,122.18 C439.54,121.21 435.00,121.25 435.00,122.23 C435.00,124.04 425.64,122.21 422.60,119.81 C420.89,118.46 418.07,116.65 416.32,115.79 C413.56,114.43 413.06,114.41 412.57,115.67 C412.26,116.48 411.49,116.81 410.84,116.40 C410.03,115.90 409.87,116.22 410.33,117.42 C410.70,118.38 411.00,119.35 411.00,119.58 C411.00,119.81 411.67,120.00 412.50,120.00 C413.33,120.00 414.00,120.74 414.00,121.65 C414.00,123.14 413.80,123.13 411.99,121.49 C409.85,119.56 409.79,119.57 408.36,122.25 C407.55,123.77 406.87,123.28 403.46,118.76 C397.89,111.37 394.27,108.27 390.37,107.54 C388.52,107.19 387.00,106.52 387.00,106.05 C387.00,104.82 381.47,103.07 379.32,103.61 C377.05,104.19 365.95,97.35 366.49,95.70 C366.97,94.24 345.16,76.64 331.92,67.80 C321.74,61.00 307.82,53.41 304.50,52.84 C303.40,52.65 302.21,52.10 301.86,51.61 C300.99,50.42 284.81,49.89 285.55,51.08 C285.86,51.59 287.24,52.00 288.62,52.00 C289.99,52.00 290.89,52.38 290.60,52.83 C290.32,53.29 290.63,53.70 291.29,53.75 C291.96,53.80 297.67,55.71 304.00,58.01 C310.33,60.31 316.20,62.19 317.06,62.17 C317.91,62.16 319.12,62.96 319.73,63.94 C320.78,65.62 320.51,65.65 315.08,64.52 C311.91,63.86 308.71,62.94 307.97,62.48 C307.23,62.02 305.24,61.56 303.56,61.45 C301.88,61.34 298.92,60.94 297.00,60.56 C295.08,60.17 296.42,60.95 300.00,62.28 C318.38,69.13 323.59,71.55 328.27,75.36 C333.58,79.70 335.55,82.53 332.41,81.33 C330.99,80.78 330.80,81.02 331.41,82.58 C331.83,83.63 332.42,85.96 332.72,87.75 L 333.26 91.00 L 321.38 91.00 C314.85,91.00 304.10,90.29 297.50,89.42 C281.61,87.33 281.00,87.19 281.00,85.56 C281.00,84.80 280.44,83.94 279.75,83.66 C278.91,83.32 278.88,83.13 279.66,83.08 C281.75,82.94 279.86,79.00 277.63,78.88 C275.94,78.79 275.86,78.67 277.25,78.31 C278.21,78.06 279.00,77.64 279.00,77.38 C279.00,76.07 275.83,71.00 275.01,71.00 C274.49,71.00 274.29,70.40 274.58,69.66 C274.86,68.92 274.40,67.75 273.56,67.05 C272.71,66.35 272.24,65.43 272.50,65.00 C273.04,64.13 264.80,61.67 261.00,61.57 C259.62,61.53 258.60,60.97 258.73,60.32 C259.06,58.56 253.18,53.99 250.67,54.06 C248.55,54.13 248.56,54.15 250.85,55.07 C253.55,56.15 259.31,60.60 256.91,59.75 C256.03,59.44 254.70,59.57 253.93,60.04 C252.86,60.70 253.11,61.12 255.02,61.89 C257.38,62.82 257.39,62.88 255.31,62.94 C254.10,62.97 252.82,62.52 252.46,61.93 C252.09,61.34 251.13,61.12 250.32,61.43 C249.51,61.74 245.77,61.52 242.00,60.93 C238.24,60.35 233.43,60.01 231.33,60.19 C228.81,60.39 231.08,60.93 238.00,61.77 C251.77,63.43 257.52,65.19 247.00,64.52 C242.88,64.26 237.25,63.75 234.50,63.38 C231.75,63.02 229.85,63.10 230.28,63.56 C231.02,64.35 239.04,65.82 245.20,66.29 C246.68,66.41 248.46,67.06 249.15,67.75 C250.15,68.75 249.68,69.00 246.82,69.00 C241.71,69.00 236.94,70.09 237.58,71.12 C237.87,71.60 240.54,72.00 243.50,72.00 C246.46,72.00 249.16,72.45 249.50,73.00 C249.84,73.55 252.23,74.03 254.81,74.07 C261.05,74.16 265.22,75.83 259.50,75.94 C252.67,76.07 245.00,77.24 245.00,78.14 C245.00,78.61 246.06,79.00 247.35,79.00 C248.64,79.00 250.77,79.93 252.09,81.08 L 254.48 83.15 L 251.59 82.83 C247.32,82.34 247.37,84.49 251.65,85.57 C257.39,87.02 257.13,89.00 251.19,89.00 C247.63,89.00 246.05,89.44 245.62,90.54 C245.30,91.38 245.59,92.24 246.27,92.44 C246.95,92.64 266.87,93.27 290.54,93.85 C314.21,94.43 334.69,95.35 336.04,95.89 C337.86,96.62 335.12,96.91 325.50,97.01 C307.21,97.19 303.18,99.05 318.00,100.45 C322.12,100.84 327.96,102.03 330.97,103.08 C333.97,104.14 337.94,105.00 339.77,105.00 C341.84,105.00 342.87,105.40 342.47,106.04 C342.12,106.61 339.78,106.95 337.27,106.79 C334.76,106.63 332.55,106.95 332.35,107.51 C332.14,108.11 333.89,108.42 336.75,108.26 C340.29,108.08 340.99,108.25 339.50,108.94 C337.58,109.82 337.59,109.86 339.75,109.93 C340.99,109.97 342.00,110.45 342.00,111.00 C342.00,111.55 341.89,112.00 341.75,112.00 C341.61,112.00 334.98,111.31 327.00,110.46 C317.37,109.45 308.95,109.15 301.93,109.60 L 291.35 110.26 L 293.75 112.65 C296.61,115.52 296.35,118.38 293.19,118.83 C291.93,119.00 284.74,116.70 277.20,113.69 C261.59,107.48 256.07,105.60 255.40,106.27 C255.14,106.53 259.01,108.68 264.00,111.05 C269.58,113.71 272.89,115.84 272.60,116.59 C272.35,117.26 272.89,118.48 273.82,119.29 C276.04,121.25 286.07,126.52 289.05,127.30 C290.35,127.64 291.18,128.15 290.90,128.43 C290.00,129.33 280.72,127.24 273.50,124.51 C263.03,120.55 260.91,120.00 256.26,120.00 L 252.00 120.00 L 252.00 125.00 C252.00,127.75 251.56,130.00 251.01,130.00 C250.47,130.00 248.89,128.21 247.51,126.02 ZM 440.41 116.50 C439.03,115.12 437.48,114.00 436.95,114.00 C435.51,114.00 438.20,117.87 439.97,118.35 C442.87,119.14 442.90,118.99 440.41,116.50 ZM 441.53 109.41 C440.64,108.05 439.45,107.22 438.88,107.57 C438.25,107.96 438.73,109.15 440.10,110.61 C441.48,112.08 441.85,113.00 441.05,113.00 C440.02,113.00 440.04,113.34 441.13,114.67 C442.38,116.19 442.53,116.14 442.83,114.11 C443.01,112.88 442.42,110.77 441.53,109.41 ZM 271.00 59.00 C271.00,58.45 270.13,58.00 269.06,58.00 C267.99,58.00 266.84,57.55 266.50,57.00 C265.53,55.42 262.99,55.81 263.62,57.44 C264.44,59.59 271.00,60.97 271.00,59.00 ZM 278.00 58.53 C278.00,57.62 271.86,54.88 270.69,55.27 C270.05,55.48 270.86,56.36 272.51,57.22 C275.54,58.81 278.00,59.39 278.00,58.53 ZM 247.00 54.00 C246.18,53.47 244.15,53.03 242.50,53.03 C240.20,53.03 239.85,53.26 241.00,54.00 C241.82,54.53 243.85,54.97 245.50,54.97 C247.80,54.97 248.15,54.74 247.00,54.00 ZM 283.00 50.14 C283.00,49.13 276.26,48.27 263.00,47.59 L 253.50 47.10 L 261.50 48.07 C265.90,48.61 270.62,49.45 272.00,49.94 C275.25,51.11 283.00,51.25 283.00,50.14 ZM 186.00 48.00 C184.06,46.75 183.00,46.75 183.00,48.00 C183.00,48.55 184.01,48.99 185.25,48.98 C187.07,48.97 187.21,48.78 186.00,48.00 ZM 59.58 40.24 C58.37,39.04 57.79,41.02 58.57,43.70 L 59.39 46.50 L 59.77 43.66 C59.98,42.10 59.89,40.56 59.58,40.24 ZM 63.00 40.94 C63.00,40.42 62.55,40.00 62.00,40.00 C61.45,40.00 61.00,40.70 61.00,41.56 C61.00,42.42 61.45,42.84 62.00,42.50 C62.55,42.16 63.00,41.46 63.00,40.94 ZM 263.79 125.84 C266.42,124.17 267.07,124.12 270.03,125.37 L 273.35 126.77 L 270.42 127.36 C268.82,127.69 266.01,127.90 264.18,127.83 L 260.86 127.69 L 263.79 125.84 ZM 206.50 115.32 C199.72,113.80 198.00,112.81 198.00,110.42 C198.00,107.00 201.16,107.29 208.25,111.36 C215.19,115.34 214.42,117.10 206.50,115.32 ZM 373.50 110.03 C363.36,107.42 352.88,104.35 350.00,103.16 C347.74,102.23 347.93,102.12 352.00,102.07 C354.48,102.04 357.76,102.67 359.29,103.47 C360.83,104.27 363.75,105.22 365.79,105.58 C369.00,106.16 373.95,107.87 381.50,111.03 C384.89,112.45 380.96,111.96 373.50,110.03 ZM 352.25 98.35 C353.21,98.08 354.00,97.18 354.00,96.35 C354.00,95.46 354.71,94.99 355.75,95.19 C359.05,95.83 357.72,98.49 354.00,98.68 C352.08,98.77 351.29,98.63 352.25,98.35 ZM 151.49 86.73 C149.99,84.34 148.51,83.37 145.66,82.91 C143.56,82.57 140.92,81.37 139.80,80.24 C137.78,78.23 137.78,78.09 139.49,70.35 C141.91,59.45 143.72,55.28 146.32,54.65 C158.11,51.79 169.45,53.27 176.40,58.58 C184.62,64.86 187.67,72.91 184.87,80.95 C183.88,83.79 183.39,84.13 180.99,83.65 C179.47,83.34 178.00,83.34 177.71,83.63 C177.42,83.92 174.55,84.38 171.34,84.65 C168.13,84.92 163.70,85.29 161.50,85.47 C159.30,85.65 157.19,85.85 156.82,85.90 C156.44,85.96 155.85,86.90 155.50,88.00 C154.64,90.72 153.85,90.47 151.49,86.73 ZM 104.59 85.75 C106.79,81.39 126.14,62.48 130.88,60.06 C134.31,58.31 134.64,58.29 134.50,59.82 C134.42,60.74 133.43,63.53 132.30,66.00 C130.16,70.70 127.87,77.53 126.02,84.75 L 124.92 89.00 L 113.94 89.00 L 102.95 89.00 L 104.59 85.75 ZM 262.07 83.89 C257.23,82.96 255.50,81.31 257.22,79.23 C258.60,77.57 264.60,78.01 264.25,79.75 C263.94,81.29 264.51,81.31 268.53,79.85 C270.36,79.19 272.92,79.02 274.60,79.46 L 277.50 80.22 L 275.07 81.14 C273.73,81.65 272.05,81.85 271.35,81.58 C270.64,81.31 269.80,81.52 269.47,82.04 C269.15,82.57 269.66,83.00 270.61,83.00 C272.89,83.00 272.11,83.60 269.00,84.22 C267.62,84.50 264.51,84.35 262.07,83.89 ZM 89.55 73.75 C89.93,72.74 89.75,72.00 89.11,72.00 C88.50,72.00 88.00,71.32 88.00,70.50 C88.00,69.68 88.40,69.00 88.88,69.00 C90.25,69.00 91.06,73.34 89.91,74.48 C89.21,75.18 89.09,74.94 89.55,73.75 ZM 47.25 69.30 C45.25,68.91 45.00,68.26 45.00,63.43 C45.00,60.44 45.45,58.00 46.00,58.00 C46.55,58.00 47.00,58.43 47.00,58.96 C47.00,59.49 48.09,60.95 49.42,62.21 C52.29,64.92 53.24,69.38 51.00,69.60 C50.17,69.68 48.49,69.55 47.25,69.30 ZM 81.04 61.68 C80.99,58.12 83.32,55.75 87.29,55.31 C90.88,54.92 91.96,56.20 91.98,60.83 C92.00,65.09 90.06,64.60 88.44,59.94 L 87.24 56.50 L 86.49 59.32 C85.96,61.35 85.44,61.84 84.66,61.06 C83.89,60.29 83.23,60.62 82.33,62.24 C81.08,64.48 81.07,64.48 81.04,61.68 ZM 94.00 61.21 C94.00,60.63 94.56,59.90 95.25,59.58 C96.25,59.12 96.25,58.88 95.25,58.42 C93.50,57.60 93.69,55.00 95.50,55.00 C96.41,55.00 97.00,55.93 97.00,57.38 C97.00,58.69 96.32,60.32 95.50,61.00 C94.59,61.75 94.00,61.83 94.00,61.21 ZM 100.00 58.00 C100.00,57.45 100.45,57.00 101.00,57.00 C101.55,57.00 102.00,57.45 102.00,58.00 C102.00,58.55 101.55,59.00 101.00,59.00 C100.45,59.00 100.00,58.55 100.00,58.00 ZM 107.36 48.48 C107.07,47.73 107.29,46.31 107.85,45.31 C108.81,43.59 108.90,43.60 109.61,45.50 C110.02,46.60 110.76,47.78 111.26,48.11 C111.76,48.45 111.20,48.98 110.02,49.28 C108.71,49.63 107.68,49.32 107.36,48.48 ZM 120.43 47.75 C120.66,46.51 120.88,45.15 120.93,44.73 C121.00,43.98 125.82,44.49 126.68,45.34 C127.20,45.87 122.06,50.00 120.87,50.00 C120.40,50.00 120.20,48.99 120.43,47.75 ZM 97.00 47.00 C97.00,45.90 97.42,45.00 97.93,45.00 C98.45,45.00 99.15,44.10 99.50,43.00 C99.85,41.90 100.50,41.00 100.95,41.00 C101.91,41.00 101.65,46.14 100.60,47.84 C99.43,49.73 97.00,49.16 97.00,47.00 ZM 110.74 44.11 C110.25,42.25 107.92,41.38 104.75,41.88 C104.34,41.95 104.00,41.50 104.00,40.89 C104.00,40.28 104.72,40.06 105.59,40.40 C108.26,41.42 109.23,40.00 107.59,37.49 C105.74,34.67 105.93,29.00 107.88,29.00 C108.86,29.00 109.08,29.83 108.66,31.93 C108.34,33.54 108.40,35.00 108.79,35.18 C110.42,35.91 113.00,43.18 112.16,44.68 C111.43,45.98 111.21,45.89 110.74,44.11 ZM 96.06 38.06 C94.86,37.30 94.83,36.68 95.86,34.40 L 97.11 31.66 L 98.55 34.43 C100.55,38.29 99.30,40.11 96.06,38.06 ZM 223.81 410.25 C223.64,409.84 223.63,397.91 223.78,383.75 L 224.07 358.00 L 246.57 358.00 C267.14,358.00 269.42,358.17 273.02,360.01 C279.63,363.38 280.50,366.17 280.50,384.00 C280.50,402.14 279.54,404.93 272.02,408.75 C267.82,410.88 266.40,411.00 245.85,411.00 C233.90,411.00 223.98,410.66 223.81,410.25 ZM 223.85 330.32 C223.66,329.87 223.63,317.91 223.78,303.75 L 224.07 278.00 L 244.28 278.02 C262.14,278.04 265.00,278.27 268.78,279.99 C275.59,283.08 276.95,287.20 276.98,304.79 C277.00,321.03 275.83,324.92 269.85,328.50 C266.84,330.30 264.38,330.53 245.35,330.82 C233.72,331.00 224.05,330.77 223.85,330.32 Z" fill="rgb(245,243,246)"/>
</g>
</svg>